<?xml version="1.0" standalone="no"?><!DOCTYPE svg PUBLIC "-//W3C//DTD SVG 1.1//EN" "http://www.w3.org/Graphics/SVG/1.1/DTD/svg11.dtd"><svg t="1534307656770" class="icon" style="" viewBox="0 0 1024 1024" version="1.1" xmlns="http://www.w3.org/2000/svg" p-id="3637" xmlns:xlink="http://www.w3.org/1999/xlink" width="30" height="30"><defs><style type="text/css"></style></defs><path d="M997.920319 513.170286c0 268.583973-217.727575 486.311548-486.311548 486.311548-268.583973 0-486.31495-217.727575-486.31495-486.31495 0-268.580571 217.730977-486.308146 486.31495-486.308146 268.587375 0 486.31495 217.727575 486.31495 486.311548" fill="#36AAAD" p-id="3638"></path><path d="M447.015123 997.328372c-5.293502-0.261953-10.566591-0.629369-15.751229-1.371003-4.521249-0.646379-9.729701-0.816478-14.69321-1.571721a1.711203 1.711203 0 0 0-0.112265 0.074844c-0.370817 0.272159-0.741635 0.466073-1.102246 0.690604a217.353355 217.353355 0 0 0 34.863628 5.885449c0.11907 0.006804 0.261953 0.027216 0.381023 0.037422 0.115668-0.734831 0.455867-1.449249 0.952558-2.034392-0.850498-0.428651-1.718007-0.847096-2.568505-1.258738-0.551123-0.10206-1.207708-0.261953-1.969754-0.455867" fill="#FFFFFF" p-id="3639"></path><path d="M392.896213 987.959282c1.683987 1.037608 3.609515 1.884704 5.633701 2.619535 0.03402-0.377621 0.047628-0.755243 0.068039-1.136266-0.381023-0.503495-0.765449-1.020598-1.156677-1.564916-1.214512 1.078432-3.10602 0.983176-4.541661 0.081647" fill="#FFFFFF" p-id="3640"></path><path d="M720.926618 883.803854c0.745037-17.707375 1.292757-35.448771 1.166884-53.17996-0.06804-9.059508-0.986578-18.357156-0.714419-27.484705-0.748439-4.694751-1.469661-9.372492-2.122844-13.982192-2.401807-16.693581-8.440346-31.039787-28.869315-27.355429-2.646751 0.476279-5.317316 0.942352-7.991283 1.394817 4.106206 31.107827-5.01794 63.977887-5.674525 95.221794-0.636173 30.594126-0.97297 60.868465-0.329993 91.363934 0.06804 3.061794-1.735017 5.014538-4.048372 5.759575a17.792425 17.792425 0 0 1-1.047814 3.082206c0.010206 0.374219 0.010206 0.748439 0.023814 1.115854 1.646565 0.370817 3.099216 1.462857 3.582299 3.378179 0.629369 2.595721 1.04101 5.293502 1.088638 7.851801a483.423256 483.423256 0 0 0 47.399973-19.911868c-6.535229-21.037927-3.340757-46.522259-2.463043-67.254006" fill="#FFFFFF" p-id="3641"></path><path d="M527.118458 651.413688c46.28412-1.752027 96.545169-19.915269 122.046512-61.038565 31.162259-50.267854 6.565847-112.888346 18.48303-167.779508 0.918538-4.235482 7.613661-4.235482 8.532199 0 2.503867 11.549767 2.823654 23.779934 2.833861 35.84 0.775654-0.408239 1.598937-0.789262 2.446033-1.132864 13.036439-5.184638 28.005209-3.044784 36.125767 9.457541 5.296904 8.151176 7.491189 17.782219 5.405768 26.678432 4.211668 2.932518 10.930605 3.572093 15.44505 4.204864 2.91891 0.411641 6.09297 0.517103 9.093528 0.282365-5.759575-9.845369-8.974458-21.942857-11.189156-31.995747-2.255522-10.280824-5.075774-20.51402-5.9739-31.043189-0.748439-8.811163-0.20412-18.064585-1.088638-26.858738-1.115854-1.408425-1.136266-2.973342-0.500093-4.238884 0.020412-1.173688 1.09204-2.25212 2.160265-2.041196 1.319973-0.578339 2.932518-0.483083 4.340944 0.806273 7.168 6.586259 15.693395 12.658817 25.181555 13.693023-4.191256-4.892066-7.610259-10.702671-10.301236-15.41103-10.01887-17.5781-14.689807-32.927894-18.030565-52.955428a4.456611 4.456611 0 0 1 0-1.490074c-0.03402-0.115668-0.11907-0.193914-0.13608-0.312983-7.035322-39.088904-7.780359-78.531615-26.015043-114.847894-16.713993-33.298711-42.038432-58.735415-76.218259-74.027375-34.550645-15.441648-78.371721-28.872718-116.562498-25.569382-20.146605 1.741821-42.368425 4.531455-60.416 14.390432-11.736877 6.426365-28.753648 14.570738-35.132386 27.484704 3.231894 0.421847 3.075402 5.623495-0.493289 5.762977-0.510299 0.013608-1.024 0.061236-1.537701 0.095256-0.08505 0.398033-0.197316 0.762047-0.261953 1.160079-0.340199 2.197688-3.827243 1.615947-3.800027-0.510299 0-0.088452 0.010206-0.166698 0.020412-0.251747-35.469183 4.575681-66.212997 38.86097-85.750644 65.886405-20.609276 28.529116-39.864558 57.228332-46.631123 92.418552-3.745595 19.527442-5.092784 40.813714 1.442445 59.888691 5.749369 16.713993 13.883535 32.625116 19.275694 49.437767 2.214698 6.919654 4.313728 14.152292 5.953489 21.507402 3.810233-5.327522 9.049302-9.039096 15.758033-8.239628 8.34509 0.98998 14.948359 5.133608 20.476598 10.702671a1890.790485 1890.790485 0 0 1-0.755243-36.598644c-0.054432-5.596279 8.726113-5.596279 8.671681 0-0.251748 26.117103 3.626525 53.438512 5.606485 79.514791 2.048 26.875748 3.160452 55.996811 18.234685 79.348093 31.005767 48.04295 100.045821 59.790033 153.2598 57.782857m75.265701-162.050552a8.967654 8.967654 0 0 1-5.613289 2.061608 8.981262 8.981262 0 0 1-5.623495-2.061608c-2.109236-1.660173-3.541475-4.160638-3.384983-6.940066 0.013608-0.129276 0.013608-0.261953 0.023814-0.398033 0-0.078246 0.023814-0.15309 0.03402-0.227934 0.098658-2.357581 0.476279-4.793409 1.034206-7.045528 0.874312-3.534671 4.327336-6.028332 7.916438-6.028332 3.572093 0 7.03192 2.493661 7.902831 6.028332 0.557927 2.25212 0.93895 4.687947 1.034206 7.045528 0.010206 0.074844 0.03402 0.149688 0.03402 0.227934 0.006804 0.13608 0.020412 0.268757 0.020412 0.398033 0.159894 2.782831-1.272346 5.279894-3.37818 6.940066m16.377196-47.059774c-6.606671 0.772252-12.764279-1.741821-19.377754-1.153276-4.160638 0.377621-8.389316 1.129462-12.566963 1.180492-8.24303 0.112266-15.220518 3.806831-23.276439 0.646379-0.653183-0.261953-0.996784-1.265542-0.217727-1.649967 16.877289-8.29406 38.231601-11.396678 56.462883-6.616877 4.531455 1.190698 3.058392 7.11697-1.024 7.593249m36.659881-210.267003c4.072186-0.146286 7.97087-0.95596 11.104106 2.537887 3.12303 3.470033 4.245688 7.620465 6.596465 11.478325 1.758831 2.888292-1.864292 6.906047-4.817222 4.820625-1.513887-1.068226-3.548279-2.313355-4.507641-3.929302-0.90493-1.537701-1.541103-3.20808-2.446034-4.738977-1.598937-2.742007-2.687575-4.119814-5.929674-4.24909-3.823841-0.139482-3.834047-5.783389 0-5.919468m-26.617196-9.001675c9.280638 4.762791 21.663894 14.145488 22.215016 25.525157 0.23814 5.218658-6.824399 6.565847-9.382697 2.541289-2.459641-3.919096-4.466817-7.695309-7.810977-11.025861-3.150246-3.12303-6.514817-5.705143-10.44412-7.773555-6.147402-3.231894-0.724625-12.417276 5.422778-9.26703m-19.204253 23.021289c3.517661-0.027216 6.814193 2.265728 9.355482 4.477024 2.85087 2.463043 5.701741 6.215442 5.123402 10.141342-0.415043 2.847468-4.534857 3.561887-6.300492 1.666977-1.102246-1.204306-1.779243-2.779429-2.789634-4.082392a25.790512 25.790512 0 0 0-3.29313-3.46323 8.899615 8.899615 0 0 0-1.530897-1.129461c-0.010206 0-1.166884-0.500093-0.557927-0.319788-0.442259-0.108864-0.442259-0.129276-0.010206-0.074844-4.500837-0.513701-4.772997-7.178206 0.003402-7.212226m-28.24675 37.677077c2.187482-1.27915 5.902458-0.728027 6.994498 1.837076 0.796066 1.847282 1.517289 3.680957 2.075216 5.613289 0.500093 1.782645 1.265542 3.626525 1.078432 5.501024-0.272159 2.85087-3.470033 5.660917-6.324306 3.629926-2.075216-1.479867-2.93592-3.245502-3.830644-5.558857-0.666791-1.707801-0.90493-2.333767-1.826871-4.021156-1.326777-2.456239-0.619163-5.562259 1.837077-7.001302m-21.660492 1.163482c2.03099 2.06501 4.354551 3.650339 6.133794 5.977302 0.90493 1.183894 1.901714 2.585515 2.585515 3.902086 0.782458 1.503681 1.068226 3.095814 1.74182 4.616505 1.173688 2.707987-1.347189 6.014724-4.303521 4.286512-3.20808-1.881302-4.269502-5.082578-6.780173-7.593249-1.775841-1.786047-3.973528-3.027774-5.87184-4.687947-4.446405-3.87487 2.313355-10.763907 6.494405-6.501209m-194.573608 15.36c1.915322-1.891508 4.048372-3.538073 6.201834-5.17103 2.160266-1.639761 4.058578-3.061794 6.691721-3.800027 1.758831-0.489887 3.558485 1.217914 3.007362 3.014166-1.588731 5.147216-7.110166 7.504797-10.804731 11.059881-3.347561 3.228492-8.426738-1.830272-5.096186-5.10299m-45.406405-2.52428c-0.741635 1.840478-3.697967 1.153276-3.068598-0.847096 2.578711-8.011694 9.824957-15.51309 17.139242-19.42198 2.007176-1.07503 3.786419 1.983362 1.779243 3.03798-6.742751 3.548279-12.954791 10.12093-15.849887 17.231096m17.11883 2.667163c-0.918538 2.156864-3.95992 1.224718-4.562073-0.588545-2.578711-7.879017 5.674525-11.155136 10.716279-14.941554 1.673781-1.24513 3.099216 1.272346 2.034392 2.62974-3.078804 3.94291-6.235854 8.287256-8.188598 12.900359m22.163987 174.988333c-4.228678 2.163668-8.331482-2.126246-6.290286-6.286884 7.052332-14.407442 19.979907-26.872346 29.91713-39.395083a900.477023 900.477023 0 0 0 16.135654-20.840612c-0.108864-0.027216-0.231336-0.06804-0.340199-0.098657-0.918538-0.20412-1.214512-0.88792-1.098844-1.564917-11.457914-3.330551-21.415548-11.522551-28.838698-20.905249-9.770525-12.349236-20.323508-23.446538-24.674658-38.993648-0.374219-1.309767 0.534113-2.160266 1.554711-2.323562 1.677183-7.729329 8.532199-19.697542 15.921329-18.139428 14.553728 3.061794 19.707748 24.103123 28.406645 33.924677 7.569435 8.549209 15.683189 17.809435 25.460518 23.888798 0.15309 0.098658 0.333395 0.176904 0.486485 0.272159 15.36-23.419322 33.271495-53.35006 34.292093-82.954206-2.639947-6.293688-4.735575-12.890153-6.011322-19.952691-0.993382-5.467003 6.889037-7.950458 8.566219-3.129834 1.391415 0.122472 2.687575 0.95596 3.211482 2.728399a89.642525 89.642525 0 0 1 3.20808 16.805847c8.018498 17.135841 20.922259 30.82206 31.791628 47.22307 7.222432 10.923801 15.965555 19.728159 24.732491 29.331987 2.9019 3.187668 5.732359 8.08994 9.331668 11.372863 0.932146-10.073302-4.262698-23.39891-5.803801-31.842657-0.530711-2.857674-0.602153-9.460944-1.592132-14.751044-3.231894-3.092412-5.422777-6.39915-5.841223-11.29802-0.438857-5.10299 6.137196-5.531641 8.573023-2.320159 3.272718 5.23907 10.13794 7.759947 14.274764 12.359442 5.079176 5.637103 10.447522 11.002047 15.945143 16.244518 10.709475 10.178764 21.973475 19.71115 33.237475 29.270751 10.4101 8.834977 20.510618 18.561276 32.397183 25.426498 6.950272 4.021156 14.118272 5.735761 21.357714 8.712505 8.341688 3.436013 12.835721-0.408239 17.465834-7.892624 2.398405-3.888478 9.869183-2.697781 9.294246 2.510671-4.905674 43.511495-56.534326 11.461316-74.864266-4.055176-17.972731-15.210312-35.863814-30.723402-52.101528-47.798007-4.936292-5.194844-9.168372-11.41709-14.366618-16.397608 1.428837 5.586073 3.738791 10.709475 6.028332 16.31596 5.03495 12.325422 12.920771 25.940199 6.144 38.915402-1.513887 2.905302-4.830831 3.694565-7.793967 3.177462-8.971056-1.605741-14.288372-9.307854-19.466206-16.122046-8.151176-10.716279-18.122419-19.632904-25.266604-31.216692-7.705515-12.485316-16.407814-24.171163-23.70509-36.54081-2.687575 23.337674-13.029635 45.92691-25.603402 66.063309-0.772252 1.231522-1.568319 2.449435-2.367787 3.667349 2.670565 1.80986 4.636917 4.674339 4.602897 7.899428-0.05103 4.286512-1.932332 10.35907-5.259482 13.26097-1.207708 1.064824-3.061794 1.364199-4.694751 1.030804-0.415043 0.23814-0.806272 0.500093-1.258737 0.687203-3.534671 1.530897-6.752957 2.211296-10.369276 2.105834a781.400452 781.400452 0 0 1-16.019987 21.500598c-10.835349 14.033223-22.572226 31.859668-38.70788 40.12311m175.042764 28.729833c-2.585515 0.554525-5.320718 1.020598-7.776957-0.180305-6.385542-3.143442-5.749369-7.906233-6.419561-14.186313-1.316571-12.230166-2.782831-24.33786-1.871097-36.653076 0.340199-4.749183 6.793781-4.643721 7.297276 0 1.119256 10.250206 2.578711 20.374538 4.422591 30.51588 0.05103 0.289169 1.204306 9.98485 2.932519 9.903203 3.03798-0.139482 7.725927-1.153276 10.988438-0.918538 9.661661 0.714419 17.588306 4.463415 17.588306 15.625355 0 19.299508-27.855522 37.83697-43.26315 23.694884-1.735017-1.592133-0.340199-4.432797 1.854087-4.466817 12.553355-0.197316 23.841169-4.208266 30.60093-15.322578 9.678671-15.921329-12.975203-8.732917-16.353382-8.011695m-118.719362-70.904345c-2.204492-0.1701-3.044784-3.766007-0.557927-4.140226 10.968027-1.639761 22.568824-4.834233 33.462007-1.047814 7.634073 2.653555 15.077635 2.326963 20.119388 9.409914 1.282551 1.79285-1.098844 3.436013-2.701182 2.704584-7.15099-3.238698-16.683375-5.885449-24.565794-7.253049-8.498179-1.476465-17.163056 0.966166-25.756492 0.326591m31.563694 51.744319c-0.044226 0.037422-0.078246 0.081648-0.11907 0.122472-2.177276 2.360983-5.745967 3.112824-8.777142 2.316757-4.847841-1.268944-8.664877-6.225648-8.314472-11.335442 0.078246-1.088638 0.289169-2.11604 0.517103-3.12303a6.906047 6.906047 0 0 1-0.176904-1.510485c0-2.371189 1.102246-4.293316 2.796439-5.630299 0.605555-0.659987 1.296159-1.258738 2.01398-1.680584a8.450551 8.450551 0 0 1 4.272903-1.153276c0.013608-0.006804 0.03402-0.006804 0.057834-0.006804 2.109236-0.22113 4.545063 1.04101 5.987509 2.483455 1.700997 1.700997 2.25212 3.663947 2.466445 5.987508 0.071442 0.670193 0.064638 1.343787 0.064638 2.01398 0.190512 0.282365 0.421847 0.534113 0.591946 0.864107 1.806458 3.701369 1.452651 7.562631-1.381209 10.648239m21.133183 77.728744c-2.418817 3.878272-9.811349 3.323748-10.757103-1.711203-0.394631-2.126246-0.724625-4.157236-0.08505-6.286883 0.680399-2.296346 1.687389-4.252492 3.612917-5.42618 0.350405-0.285767 0.714419-0.557927 1.10905-0.78586 1.432239-0.830086 3.453023-0.93895 4.871654 0 1.575123 1.037608 2.136452 2.483455 2.26913 4.19806 0.088452 0.309581 0.163296 0.612359 0.20412 0.942352 15.754631 8.185196 20.949475 37.183787 41.334219 36.278857 19.901661-0.877714 35.00311-12.706445 52.560797-19.449196 0.091854-0.530711 0.227934-1.064824 0.462671-1.612545 1.010392-2.466445 2.813449-4.320532 5.681329-4.320532 2.629741 0 4.347748 1.581927 5.402366 3.745595 0.010206 0.01701 0.03402 0.027216 0.044225 0.047628-0.272159-0.676997-0.139482-0.360611 0.044226 0.03402l0.751841 0.625967c2.786233 2.391601 2.449435 7.06594 0 9.515375-2.425621 2.415415-7.161196 2.810047-9.518777 0a7.123774 7.123774 0 0 0-0.299376-0.374219c-13.250764 14.230538-37.343681 25.242791-55.1259 24.426312-10.233196-0.476279-19.296106-5.443189-25.395881-13.784877-3.725183-5.06897-8.307668-10.114126-11.430697-15.560718-1.626153-2.830458-3.306738-7.30408-5.735761-10.501953m24.892385 50.907429c-5.752771-3.524465-13.478698-8.419934-11.474923-16.173077 0.493289-1.91192 3.538073-1.534299 3.456425 0.462671-0.183708 4.483827 8.834977 7.562631 12.145116 8.947243 8.923429 3.742193 16.387402 3.895282 25.613608 0.986578 2.755615-0.87091 5.30711 3.08901 2.93592 5.031548-10.556385 8.586631-21.344106 7.688505-32.676146 0.748439" fill="#FFFFFF" p-id="3642"></path><path d="M336.423123 559.808213c-0.047628 5.368346-0.503495 10.37608-1.8779 15.217116h0.030618c4.160638-0.615761 8.43014-0.83689 12.563561-1.592133 1.234924-0.231336 2.490259-0.574937 3.748997-0.901528a146.591894 146.591894 0 0 1-2.544691-11.158538 32.458419 32.458419 0 0 1-11.920585-1.564917" fill="#FFFFFF" p-id="3643"></path><path d="M407.068917 761.434153c-3.000558 1.612545-7.164598 2.01398-10.808133 2.381395 0.850498 2.578711 1.217914 5.334326 1.149874 7.613661-0.180306 6.225648-0.251748 12.400266-0.513701 18.56808 0.826684-1.718007 1.656771-3.436013 2.439229-5.17103 1.643163-3.616319 6.552239-1.408425 6.803987 1.843881 1.136266 14.478884-1.932332 28.369223-5.10299 42.313993 0.428651-1.180492 0.88792-2.371189 1.299561-3.558485 1.680585-4.926086 10.382884-6.215442 11.301422 0 1.088638 7.300678 1.217914 14.659189 0.826684 22.048319 2.23511-1.24513 4.633515-1.524093 7.239442-0.479681 8.834977 3.524465 9.967841 17.625728 8.470964 31.954923 1.615947-2.163668 3.898684-3.606113 7.144186-3.606113 0.044226 0 0.081648 0.010206 0.13608 0.010206 1.568319-2.680771 5.249276-3.953116 8.453953-2.347375 0.942352 0.479681 1.8779 0.993382 2.806645 1.527495-10.794525-13.988997-19.306312-30.672372-27.423469-47.508837-9.688877-20.054751-16.669767-43.021608-14.223734-65.590432" fill="#FFFFFF" p-id="3644"></path><path d="M439.21095 954.694591c1.27915 0.129276 2.565103 0.23814 3.837449 0.35721l-1.207708-2.480053a12.335628 12.335628 0 0 1-2.629741 2.122843" fill="#FFFFFF" p-id="3645"></path><path d="M417.686538 952.1499c1.496877 0.214326 3.007362 0.428651 4.504239 0.636173-1.462857-1.615947-2.697781-3.616319-3.748996-5.837821-0.197316 1.564917-0.432053 3.340757-0.755243 5.198246" fill="#FFFFFF" p-id="3646"></path><path d="M396.332226 798.937728a125.564173 125.564173 0 0 1-0.595349 5.691534c0.608957-2.565103 1.156678-5.130206 1.632957-7.698711-0.261953 0.523907-0.523907 1.027402-0.728027 1.598937-0.078246 0.176904-0.197316 0.289169-0.306179 0.40824" fill="#FFFFFF" p-id="3647"></path><path d="M298.276571 535.67107c1.558113 0.81988 3.538073 0.809674 5.245874 0.796066 2.20109-0.010206 4.286512 1.748625 6.422964 2.279336 1.26214 0.309581 2.551495 0.483083 3.854458 0.605555-3.282924-5.398963-6.34812-10.869369-8.882605-16.499668a59.412412 59.412412 0 0 1-6.640691 12.818711" fill="#FFFFFF" p-id="3648"></path><path d="M502.882658 920.460332v-0.098658a164.530605 164.530605 0 0 1-8.954047-2.959734c-0.401435-0.13608-0.816478-0.285767-1.221315-0.432053 1.204306 1.680585 2.398405 3.381581 3.602711 5.109794 1.449249 0.047628 3.08901 0.544319 4.922684 1.670379 0.809674 0.493289 1.571721 1.068226 2.306552 1.680585a108.479362 108.479362 0 0 1-0.656585-4.966911" fill="#FFFFFF" p-id="3649"></path><path d="M697.541316 467.937382c-6.878831-1.639761-14.730631 0-18.523854 4.640319v0.459269c0.115668 14.26796 0.663389 28.532518 0.95596 42.793675 12.230166-6.157608 29.801462-16.867083 29.236731-28.80808-0.312983-6.848213-3.905488-17.227694-11.668837-19.085183" fill="#FFFFFF" p-id="3650"></path><path d="M719.368505 502.137621a32.121621 32.121621 0 0 1-2.25212 3.14004c-4.191256 5.021342-8.811163 9.661661-13.937966 13.376638 7.443561 5.32412 16.499668 11.372864 24.099721 11.505542 2.908704 0.05103 10.47814 1.428837 12.08388-1.626153 0.591947-1.122658 1.17709-2.245316 1.789448-3.36117a32.533262 32.533262 0 0 1-2.93592-2.742006 1040.244518 1040.244518 0 0 1-17.965927-19.49002 30.253927 30.253927 0 0 1-0.884518-0.802871" fill="#FFFFFF" p-id="3651"></path><path d="M344.247708 523.413688c-0.816478-14.887123-1.462857-29.937542-1.973157-44.974352-9.09693-8.685289-22.963455-16.686777-29.189102-2.228306-5.17103 12.022645-4.30012 26.331429 1.700996 37.93903 4.272904 8.263442 9.209196 18.952505 15.839681 25.66804 4.844439 4.89887 10.008664 7.130578 15.71721 8.845182-1.030804-8.29406-1.646565-16.727601-2.095628-25.249594" fill="#FFFFFF" p-id="3652"></path><path d="M377.536213 861.609249c-0.884518 5.796997-2.18408 11.498738-4.201462 16.928319-0.598751 1.639761-1.530897 2.888292-2.629741 3.772811 0.261953 2.09903 0.523907 4.201462 0.748439 6.307295 0.108864 1.05802 0.285767 2.143256 0.442259 3.221688 1.132864-0.01701 2.224904 0.333395 3.007362 1.119256 0.156492-0.472877 0.306179-0.945754 0.476279-1.411827 2.214698-10.076704 4.014352-20.156811 5.926272-30.338977a8.504983 8.504983 0 0 1-3.769408 0.401435" fill="#FFFFFF" p-id="3653"></path><path d="M680.146924 527.186498c0.05103 8.26004-0.367415 16.2139-1.360798 23.92622 4.436199 6.256266 11.039468 11.38307 18.078193 13.607973 2.633143 0.833488 3.956518 1.503681 5.10299 0.432053-2.599123-4.391973-4.568877-9.40311-6.242658-12.689435-4.674339-9.151362-6.065754-17.39099-6.004518-26.885954-3.05499 0.928744-6.22905 1.507083-9.573209 1.609143" fill="#FFFFFF" p-id="3654"></path><path d="M424.024452 395.461316c-5.317316-0.466073-10.604013-2.265728-15.417834-4.364758a48.468199 48.468199 0 0 1-5.089382-2.619535 130.976744 130.976744 0 0 1-15.587934-15.339588c-7.800771-9.056106-11.791309-19.935681-19.432186-28.998591-1.476465-1.762233-5.626897-13.761063-10.604013-7.793967-3.286326 3.936106-6.113382 8.14097-7.936851 12.958193a2.721595 2.721595 0 0 1-0.775654 1.088638c5.514631 12.012439 16.17988 20.524226 25.004651 30.209701 6.099774 6.695123 12.815309 11.583787 20.282685 15.462059a73.534086 73.534086 0 0 0 10.689063 8.845183 74.241701 74.241701 0 0 1 6.072558-0.496691c3.449621-0.122472 7.902831-0.398033 10.379482-3.204678 1.520691-1.714605 1.823468-3.881674 2.415415-5.749368" fill="#FFFFFF" p-id="3655"></path><path d="M366.115721 792.232399c-2.531083 1.323375-5.30711 1.973156-7.804173 1.700996 0.949156 11.549767 1.745223 23.116545 2.3882 34.690127 0.285767-1.085236 0.571535-2.170472 0.88792-3.2421 1.078432-5.681329 2.26913-11.29802 3.616319-16.696983 0.983176-3.97693 2.857674-8.24303 3.742192-12.253981a12.577169 12.577169 0 0 1-2.116039-2.391601c-0.25515-0.602153-0.476279-1.204306-0.714419-1.806458" fill="#FFFFFF" p-id="3656"></path><path d="M377.665488 780.247176c1.422033 2.459641 2.888292 4.89887 4.36816 7.392532 0.401435-6.167814 0.799468-12.580571 0.054432-18.493236 0.428651 3.391787-1.721409 7.38913-4.422592 11.104106" fill="#FFFFFF" p-id="3657"></path><path d="M441.837289 774.657701c6.191628 16.955535 10.825143 35.99309 21.728532 50.601249 10.525767 14.087654 25.712266 31.604518 41.888744 39.041276 10.165156 4.670937 23.024691 8.539003 33.019747 1.112452 7.433355-5.528239 13.097674-12.485316 19.023947-19.500226 12.298206-14.567336 26.106897-27.804492 35.496399-44.668173 3.721781-6.701927 12.172332-22.129967 7.610259-29.556518-3.538073-5.715349-6.769967-9.671867-11.250392-14.665994-8.603641-9.593621-21.561834-8.889409-32.193063-13.029634 0.020412 0.765449 0.03402 1.547907 0 2.343973-0.15309 4.133422-4.534857 5.392159-7.477582 3.102618-12.740465-9.862379-14.662591-31.128239-15.026604-46.233089-0.258551-11.260598-0.884518-25.389076 2.646751-36.993276-3.408797 0.217728-6.803987 0.377621-10.185569 0.421847-13.846113 0.180306-28.848904-0.404837-44.049009-2.15006 6.065754 25.433302 7.640877 54.027056 3.252305 79.572625-0.561329 3.194472-4.160638 4.327336-6.899242 3.432611-3.12303 2.966538-7.195216 5.347934-11.015655 7.021714-6.419561 2.796439-13.27798 5.011136-20.24186 5.936479-3.90889 0.510299-7.521807 0.639575-11.440904 0.568133 2.190884 0.037422 4.429395 11.760691 5.113196 13.641993" fill="#FFFFFF" p-id="3658"></path><path d="M627.276545 765.81592c1.374405 2.109236 2.537887 4.412385 3.609515 6.776771 2.9019-2.551495 8.368904-1.17709 10.10392 2.541289 1.755429-0.717821 3.851056-0.503495 5.150618 1.000186 0.06804-0.765449 0.156492-1.527495 0.197316-2.303149 0.03402 0.023814 0.06804 0.054432 0.102059 0.074843a5.34113 5.34113 0 0 1 2.177276-4.211667c-0.023814-0.455867-0.020412-0.90493-0.054432-1.360798-0.06804-0.663389 0.088452-1.27915 0.329994-1.854086-6.715535-0.044226-14.138684-0.078246-21.616266-0.663389" fill="#FFFFFF" p-id="3659"></path><path d="M643.044784 955.065409c0.340199 0.557927 0.673595 1.10905 0.98998 1.646564 0.023814 0.027216 0.03402 0.061236 0.047628 0.08505a28.440664 28.440664 0 0 1 1.871096-0.847096 9.580013 9.580013 0 0 0-0.87091-1.224718 7.008106 7.008106 0 0 1-2.041196 0.3402" fill="#FFFFFF" p-id="3660"></path><path d="M641.323375 890.114551c0.217728-1.248532 0.462671-2.507269 0.680399-3.7558a7.089754 7.089754 0 0 1-1.496877-1.728213c0.329993 1.80986 0.591947 3.646937 0.816478 5.484013" fill="#FFFFFF" p-id="3661"></path><path d="M629.86206 921.780306c-0.047628 1.00699-0.06804 2.01398-0.06804 3.034578 1.054618-2.93592 5.296904-3.755801 6.923056-0.789263 0.268757 0.489887 0.554525 0.969568 0.826685 1.456053 0.13608-3.068598 0.309581-6.123588 0.493289-9.185382-0.231336 0.428651-0.394631 0.877714-0.646379 1.292758-1.632957 2.742007-4.579083 4.109608-7.528611 4.191256" fill="#FFFFFF" p-id="3662"></path><path d="M635.924412 865.096292c0.020412 1.377807 0.03402 2.765821 0.040824 4.160638 0.782458 0.513701 1.411827 1.306365 1.683987 2.381396 0.632771 2.588917 1.299561 5.317316 1.89491 8.130764 0.340199-3.95992 0.915136-7.831389 1.854086-11.58719-2.095628-0.415043-4.11301-1.496877-5.477209-3.085608" fill="#FFFFFF" p-id="3663"></path><path d="M663.160771 793.276811c1.04101-0.680399 2.357581-0.945754 3.657143-0.826685 0.523907-3.32715 1.21111-6.531827 2.275933-9.406511 2.306551-6.208638 4.742379-12.35604 6.487602-18.741582a199.83309 199.83309 0 0 1-17.009967 1.860891c5.657515 6.184824 5.626897 16.799043 4.589289 27.113887" fill="#FFFFFF" p-id="3664"></path><path d="M365.251615 973.398751c-3.949714-3.946312-5.861635-11.45111-5.728957-18.411588-7.940252-9.270432-8.368904-23.75612-8.539004-35.530419-0.241542-18.63612-3.177462-37.217807-3.419003-55.813103-0.435455-33.679734-0.108864-66.117741 2.915508-99.477688-6.824399-1.425435-13.1419-4.068784-20.350724-4.184451-14.084252-0.248346-20.786179 11.716465-23.225408 24.310644-2.398405 12.383256-1.326777 25.399282-1.326778 37.959442-0.010206 13.648797-0.142884 27.277183 0.459269 40.912372 1.081834 24.450126 0.217728 48.944478 7.916439 72.428439 0.666791 2.034392-0.061236 3.830645-1.422033 5.00093 0.132678 0.612359 0.261953 1.234924 0.326591 1.857488 0.261953 2.272532 1.166884 8.916625 2.959734 10.648239 0.493289 0.340199 0.993382 0.728027 1.483269 1.221316a5.987508 5.987508 0 0 1 1.721409 5.501023 482.351628 482.351628 0 0 0 52.717289 19.207655c-0.265355-1.061422-0.483083-2.11604-0.755243-3.177462-1.8779 0.091854-3.885076-0.595349-5.732358-2.452837" fill="#FFFFFF" p-id="3665"></path><path d="M501.57289 958.579668c1.905116 0.044226 3.810233 0.074844 5.701741 0.13608a42.201728 42.201728 0 0 1-5.848026-4.313728c0.088452 1.381209 0.1701 2.789635 0.146285 4.18105" fill="#FFFFFF" p-id="3666"></path><path d="M621.68707 953.422246c1.408425 0.619163 2.639947 1.564917 3.697967 2.680771-0.860704-1.530897-1.666977-3.092412-2.398406-4.684545a10.0699 10.0699 0 0 1-1.299561 2.003774" fill="#FFFFFF" p-id="3667"></path><path d="M658.506844 887.341927c-1.884704 15.608346-2.837262 31.084013-4.177648 46.852252-0.306179 3.680957-1.221316 9.518777-3.306738 14.097861 1.190698 1.156678 2.262326 2.432425 3.252306 3.80683 0.261953-0.418445 0.588545-0.796066 0.877714-1.204305 0.183708-0.918538 0.687203-1.707801 1.435642-2.292944 0.01701-0.20412 0.037422-0.401435 0.047628-0.646378 0.22113-3.262512 0.591947-6.453581 1.088637-9.644652-0.925342-7.096558-0.139482-14.819083-0.071441-21.510804 0.06804-9.831761 0.452465-19.646512 0.8539-29.461262" fill="#FFFFFF" p-id="3668"></path><path d="M576.205821 913.639336c-0.442259 1.000186-0.942352 1.905116-1.452652 2.776026-0.088452 0.282365-0.163296 0.554525-0.251747 0.833488-0.381023 3.776213-0.578339 7.484385-0.806272 11.138127 0.108864-0.06804 0.20412-0.142884 0.309581-0.20412 0.799468-8.453953 5.062166-16.040399 9.974644-23.167575-4.667535-4.851243-7.504797 7.977674-7.773554 8.624054" fill="#FFFFFF" p-id="3669"></path><path d="M565.285422 976.120346c2.258924 1.462857 4.616505 2.595721 7.086352 3.340757a84.355827 84.355827 0 0 0 5.432983-1.292757c-0.527309-0.588545-1.000186-1.234924-1.493475-1.864293-3.861262 0.268757-7.834791-0.01701-11.02586-0.183707" fill="#FFFFFF" p-id="3670"></path><path d="M524.495522 958.464l2.262325-0.047628c1.275748-0.013608 2.561701-0.013608 3.844253-0.027216-1.847282-0.231336-3.691163-0.500093-5.535044-0.762046-0.15309 0.306179-0.374219 0.564731-0.571534 0.83689" fill="#FFFFFF" p-id="3671"></path><path d="M585.724598 884.97414c-0.125874-1.939136-0.316385-3.810233-0.622565-5.49422-2.585515 3.85786-4.704957 9.457542-5.398963 11.702857-0.122472 0.387827-0.217728 0.76885-0.329994 1.156678 0.272159 0.663389 0.408239 1.374405 0.381024 2.119442a10.985037 10.985037 0 0 1 6.266471 0.425249c-0.054432-2.588917-0.071442-5.664319-0.217727-8.702299a4.13002 4.13002 0 0 1-0.078246-1.207707" fill="#FFFFFF" p-id="3672"></path><path d="M544.227083 912.992957c2.476651 0.122472 4.96691 0.197316 7.484385 0.170099 1.16008-0.010206 2.429023-0.006804 3.748997-0.061235 2.245316-6.439973 4.422591-12.968399 8.270246-18.299323 0.272159-0.959362 0.574937-1.91192 0.87091-2.861076-7.460571 5.834419-15.846485 13.186126-24.854963 16.302352 1.609143 1.442445 3.072 3.082206 4.480425 4.749183" fill="#FFFFFF" p-id="3673"></path><path d="M608.378472 954.061821c-0.149688 0.156492-0.329993 0.285767-0.500093 0.432053-0.020412 0.966166-0.272159 1.884704-0.653183 2.755614 0.979774-0.782458 1.99697-1.517289 3.099216-2.177275a8.838379 8.838379 0 0 1-1.649967-1.343788c-0.112266 0.108864-0.183708 0.217728-0.295973 0.333396" fill="#FFFFFF" p-id="3674"></path><path d="M586.962924 944.692731c1.010392 0.06804 2.000372 0.115668 2.993754 0.18711-0.197316-0.724625-0.329993-1.486671-0.479681-2.241914-0.816478 0.690605-1.626153 1.384611-2.514073 2.054804" fill="#FFFFFF" p-id="3675"></path><path d="M612.426844 764.346259c1.571721 3.361169 2.796439 6.817595 3.548279 9.563003 1.874498 6.838007-4.606299 19.401568-7.412944 25.099907-10.501953 21.405342-27.491508 37.398113-42.654192 55.306206-12.352638 14.580944-24.188173 28.039229-44.28715 29.107456-19.867641 1.064824-38.245209-16.737807-51.036704-29.311575-15.098047-14.839495-26.443694-30.253927-33.237475-50.437954-3.442817-10.226392-15.064027-29.607548-14.016213-43.851694a13.539934 13.539934 0 0 1-1.224717 0.112266c-4.289914 0.207522-2.041196 16.077821-1.803057 18.877661 1.673781 19.939083 10.199176 36.510193 18.983123 54.047468 15.887309 31.733794 34.319309 62.545648 73.636146 64.239841 9.739907 0.418445 19.493422 1.483269 28.090259-4.269502 7.03192-4.694751 14.315588-9.654857 20.670512-15.247734 13.077262-11.50214 22.970259-24.739296 34.741156-37.319867 6.436571-6.882233 14.424452-14.237342 20.282684-22.582432 2.228306-8.44715 5.313914-16.598326 8.001489-24.868571-0.792664-11.29802-3.830645-21.854405-12.281196-28.464479" fill="#FFFFFF" p-id="3676"></path><path d="M607.888585 847.579429c-5.10299 5.613289-10.025674 11.34905-15.019801 17.009966 3.299934 2.687575 5.487415 7.593249 6.940066 13.141901 0.850498-1.731615 1.786047-3.432611 2.922313-5.05196 0.850498-1.221316 1.738419-2.439229 2.622937-3.643535a7.32109 7.32109 0 0 1-0.700811-3.558485c0.319787-5.899056 1.592133-11.896771 3.231894-17.894485" fill="#FFFFFF" p-id="3677"></path><path d="M654.781661 410.263389c-4.633515 7.491189-9.124146 11.328638-17.469236 7.896026-7.239442-2.980146-14.40404-4.694751-21.357714-8.709103-11.886565-6.872027-21.990485-16.591522-32.393781-25.4299-11.264-9.559601-22.534804-19.088585-33.237475-29.270751-5.501023-5.242472-10.869369-10.607415-15.948545-16.244518-4.140226-4.599495-11.00885-7.120372-14.271362-12.359442-2.439229-3.211482-9.015282-2.782831-8.573023 2.320159 0.411641 4.89887 2.609329 8.202206 5.837821 11.29802 0.993382 5.2901 1.068226 11.889967 1.592132 14.747642 1.551309 8.44715 6.739349 21.772757 5.803801 31.842657-3.595907-3.279522-6.426365-8.181794-9.328266-11.369461-8.766937-9.603827-17.503256-18.408186-24.732491-29.331987-10.869369-16.40101-23.77313-30.094033-31.791628-47.219668a89.642525 89.642525 0 0 0-3.20808-16.812651c-0.523907-1.769037-1.823468-2.602525-3.211482-2.721595-1.680585-4.830831-9.559601-2.347375-8.566219 3.119628 1.275748 7.069342 3.367973 13.662405 6.011322 19.956093-1.020598 29.604146-18.928691 59.534884-34.292093 82.954206-0.15309-0.095256-0.336797-0.1701-0.486485-0.272159-9.780731-6.079362-17.894485-15.34299-25.460518-23.888798-8.698897-9.821555-13.852917-30.862884-28.406645-33.924677-7.38913-1.554711-14.247548 10.4101-15.917927 18.139428-1.024 0.156492-1.932332 1.013794-1.564917 2.323562 4.361355 15.54711 14.900731 26.644412 24.684864 38.993648 7.416346 9.379296 17.37398 17.574698 28.838698 20.908651-0.122472 0.670193 0.1701 1.360797 1.088638 1.561515 0.115668 0.027216 0.231336 0.071442 0.340199 0.098657a934.095522 934.095522 0 0 1-16.125448 20.847416c-9.947429 12.515934-22.871601 24.980837-29.927336 39.388279-2.041196 4.16404 2.061608 8.450551 6.290286 6.286884 16.135654-8.266844 27.872532-26.089887 38.70788-40.126512a776.44715 776.44715 0 0 0 16.019987-21.500598c3.623123 0.108864 6.834605-0.574937 10.369276-2.105834 0.452465-0.18711 0.843694-0.449063 1.258737-0.687203 1.632957 0.340199 3.483641 0.03402 4.694751-1.030804 3.330551-2.9019 5.218658-8.974458 5.259482-13.26097 0.03402-3.221688-1.932332-6.089568-4.602897-7.899428 0.796066-1.217914 1.598937-2.432425 2.367787-3.667349 12.577169-20.139801 22.915827-42.722233 25.603402-66.070113 7.300678 12.37305 16.009781 24.062299 23.70509 36.544212 7.144186 11.583787 17.112027 20.49701 25.266604 31.216692 5.177834 6.814193 10.49515 14.516306 19.466206 16.122046 2.966538 0.517103 6.28008-0.272159 7.790565-3.177462 6.780173-12.975203-1.098844-26.593382-6.140598-38.915402-2.289542-5.606485-4.596093-10.729887-6.028332-16.31596 5.198246 4.980518 9.433728 11.202764 14.376824 16.397608 16.227508 17.074605 34.121993 32.587694 52.091322 47.798007 18.32994 15.51309 69.958591 47.566671 74.864266 4.055176 0.578339-5.20505-6.892439-6.388944-9.287442-2.503867m-243.548704-5.848027c-2.13305 0.074844-4.109608 0.268757-6.07596 0.493289a73.323163 73.323163 0 0 1-10.689063-8.841781c-7.467375-3.888478-14.186312-8.773741-20.282685-15.465461-8.821369-9.685475-19.49002-18.19386-25.004651-30.209701a2.697781 2.697781 0 0 0 0.775654-1.088638c1.82687-4.813821 4.650525-9.018684 7.936851-12.954791 4.980518-5.967096 9.127548 6.031734 10.604013 7.793967 7.640877 9.06291 11.638219 19.939083 19.432186 28.998591a130.728399 130.728399 0 0 0 15.587934 15.339588c1.649967 0.959362 3.344159 1.864292 5.089382 2.619535 4.813821 2.095628 10.100518 3.898684 15.417834 4.364758-0.591947 1.86089-0.894724 4.02796-2.415415 5.749368-2.476651 2.803243-6.933262 3.078804-10.37608 3.201276" fill="#38383A" p-id="3678"></path><path d="M543.614724 492.608638c-3.265914-0.244944-7.950458 0.772252-10.988438 0.918538-1.728213 0.078246-2.88489-9.617435-2.932519-9.903203a431.236678 431.236678 0 0 1-4.422591-30.519282c-0.503495-4.643721-6.953674-4.755987-7.293874 0-0.918538 12.311814 0.547721 24.419508 1.864293 36.656478 0.680399 6.276678 0.03402 11.036066 6.419561 14.182911 2.456239 1.200904 5.201648 0.734831 7.790565 0.180305 3.367973-0.721223 26.018445-7.899429 16.336372 8.015097-6.759761 11.117714-18.044173 15.128664-30.60093 15.32598-2.194286 0.03402-3.589103 2.874684-1.854087 4.463415 15.41103 14.145488 43.266551-4.391973 43.266552-23.694884 0-11.165342-7.916439-14.914339-17.588306-15.628757" fill="#38383A" p-id="3679"></path><path d="M575.525422 568.962977a45.052598 45.052598 0 0 0-0.751841-0.629369c-0.183708-0.391229-0.316385-0.704213-0.05103-0.03402l-0.037421-0.044226c-1.051216-2.163668-2.776027-3.748997-5.405768-3.748997-2.857674 0-4.670937 1.857488-5.674525 4.320532a7.212226 7.212226 0 0 0-0.455867 1.615947c-17.567894 6.742751-32.672744 18.574884-52.567601 19.449196-20.391548 0.901528-25.58299-28.093661-41.334219-36.278857a6.902645 6.902645 0 0 0-0.207522-0.942352c-0.132678-1.714605-0.687203-3.160452-2.26913-4.19806-1.422033-0.93895-3.442817-0.830086-4.871654 0a8.630857 8.630857 0 0 0-1.10905 0.78586c-1.925528 1.173688-2.929116 3.129834-3.606113 5.42618-0.646379 2.129648-0.323189 4.160638 0.078246 6.286883 0.945754 5.03495 8.334884 5.589475 10.757103 1.711203 2.439229 3.197874 4.109608 7.668093 5.735761 10.49515 3.12303 5.443189 7.708917 10.49515 11.430697 15.560717 6.099774 8.334884 15.162684 13.308598 25.395881 13.784877 17.775415 0.816478 41.875136-10.195774 55.129302-24.426312 0.098658 0.115668 0.197316 0.248346 0.295974 0.374219 2.360983 2.810047 7.089754 2.415415 9.518777 0 2.442631-2.442631 2.786233-7.11697 0-9.508571" fill="#38383A" p-id="3680"></path><path d="M522.655043 607.817143c-9.226206 2.912106-16.693581 2.755615-25.613608-0.986578-3.306738-1.384611-12.328824-4.463415-12.138312-8.943841 0.071442-1.99697-2.966538-2.371189-3.463229-0.462671-2.007176 7.749741 5.722153 12.648611 11.474923 16.173077 11.33204 6.943468 22.119761 7.844997 32.679548-0.748439 2.364385-1.939136-0.180306-5.899056-2.939322-5.031548" fill="#38383A" p-id="3681"></path><path d="M448.260252 474.305914c-0.1701-0.326591-0.394631-0.578339-0.585142-0.860705 0-0.670193 0.003402-1.347189-0.061236-2.017382-0.217728-2.320159-0.775654-4.286512-2.480053-5.984106-1.439043-1.442445-3.878272-2.707987-5.980705-2.483455-0.023814 0-0.047628 0-0.061236 0.006804a8.351894 8.351894 0 0 0-4.266099 1.156678c-0.724625 0.418445-1.408425 1.017196-2.020784 1.680584-1.694193 1.333581-2.793037 3.262512-2.793037 5.626897 0 0.530711 0.064638 1.027402 0.1701 1.510485a21.633276 21.633276 0 0 0-0.510299 3.12303c-0.350405 5.12 3.463229 10.0699 8.31107 11.335442 3.034578 0.796066 6.603269 0.044226 8.777142-2.313355 0.040824-0.044226 0.074844-0.088452 0.11907-0.125874 2.844066-3.082206 3.197874-6.950272 1.381209-10.651641" fill="#38383A" p-id="3682"></path><path d="M605.769143 482.42307c0-0.129276-0.006804-0.261953-0.020412-0.398033 0-0.078246-0.027216-0.15309-0.03402-0.227934a35.897834 35.897834 0 0 0-1.037608-7.045528c-0.877714-3.534671-4.330738-6.028332-7.902831-6.028332-3.585701 0-7.042126 2.493661-7.916438 6.028332a36.146179 36.146179 0 0 0-1.034206 7.045528c-0.010206 0.074844-0.03402 0.149688-0.03402 0.227934-0.010206 0.13608-0.010206 0.268757-0.023814 0.398033-0.15309 2.782831 1.27915 5.279894 3.384983 6.940066a8.988066 8.988066 0 0 0 5.623495 2.061608c2.085422 0 4.048372-0.796066 5.613289-2.061608 2.095628-1.660173 3.534671-4.157236 3.381582-6.940066" fill="#38383A" p-id="3683"></path><path d="M468.349023 437.438512c-5.048558-7.08295-12.49212-6.759761-20.126192-9.409914-10.893183-3.786419-22.487176-0.595349-33.462007 1.047814-2.483455 0.374219-1.646565 3.970126 0.557927 4.140226 8.593435 0.646379 17.261714-1.803056 25.75309-0.323189 7.882419 1.367601 17.414804 4.014352 24.565794 7.253049 1.605741 0.728027 3.987136-0.918538 2.711388-2.707986" fill="#38383A" p-id="3684"></path><path d="M619.785355 434.706711c-18.234684-4.772997-39.585595-1.677183-56.466285 6.620279-0.772252 0.384425-0.432053 1.388013 0.210923 1.653369 8.066126 3.153648 15.043615-0.544319 23.283243-0.649781 4.177648-0.05103 8.39612-0.80287 12.566963-1.180492 6.616877-0.588545 12.771083 1.925528 19.377754 1.156678 4.085794-0.479681 5.558857-6.409355 1.027402-7.596651" fill="#38383A" p-id="3685"></path><path d="M783.679787 419.816186c-6.552239-10.335256-16.584718-18.251694-23.395508-28.814884-9.209196-14.28497-15.523296-28.51891-20.177223-44.899508 0 0 0.010206-0.01701 0.010206-0.027216 6.872027-41.599575-5.565661-88.792027-24.171162-125.93499-18.853847-37.615841-51.111548-62.804199-89.312532-78.749342-40.300013-16.812651-85.883322-26.140917-129.292757-20.275881-22.317076 3.010764-42.038432 10.396492-60.72218 22.875004-11.566777 7.742937-21.779561 16.635748-24.409302 29.726618-31.345967 2.435827-57.37802 19.197449-79.303867 41.582564-23.528186 24.001063-46.549475 55.935575-58.932731 87.220306-13.771269 34.724146-17.66315 73.085023-4.830831 108.482764 6.606671 18.21087 15.081037 35.540625 20.037741 54.336638 2.782831 10.546179 4.201462 21.374724 4.813821 32.250897 0.697409 12.502326-3.374777 24.623628-6.072558 36.714312-0.867508 3.878272 3.912292 7.940252 7.164598 5.436386 2.663761 1.507083 5.762977 1.272346 8.981262 2.830458 3.922498 1.884704 9.117342 3.340757 13.978791 3.333954 4.096 5.541847 8.974458 9.719495 14.499295 12.349236-0.840292 6.98089-2.565103 13.505914-6.378737 19.241674-3.687761 1.840478-6.548837 4.772997-6.756359 9.389502-0.156492 3.514259 4.919282 5.953488 7.290472 3.027774 0.23814-0.289169 0.438857-0.578339 0.649781-0.87091l0.01701 0.006804c0.020412-0.047628 0.054432-0.078246 0.074843-0.115668 0.493289-0.642977 0.959362-1.272346 1.394818-1.908519 5.164226-5.22206 17.411402-2.925714 24.684864-5.895654 2.687575 7.783761 6.113382 15.370206 10.668651 22.708306 22.551814 36.391123 66.015681 52.965635 109.275428 59.381794 0.251748 10.624425 1.94594 21.061741 1.639761 31.808638-0.357209 12.50913-1.081834 25.348252-0.129276 37.928823-3.551681 6.824399-18.180252 9.814751-24.579402 11.662034-6.34812 1.830272-15.10485-0.578339-20.874631 3.211481-2.629741 0.122472-5.15402 0.091854-7.511601 0.163296-0.578339-0.932146-1.571721-1.639761-3.027774-1.718007-5.194844-0.272159-8.783947 0.142884-13.737249 1.918725-6.790379 2.415415-15.693395 1.272346-22.80016 1.452651-7.97087 0.190512-15.975761 0.010206-23.943229-0.03402-7.314286-0.03402-12.498924-2.714791-19.445794-3.997342-24.235801-4.490631-38.986844 8.409728-45.94392 30.985355-3.980332 12.927575-2.646751 27.161515-2.646751 40.449701 0 16.999761-0.057834 33.9621 0.711016 50.938047 0.632771 14.312186-0.261953 29.393223 1.973156 43.538711 1.473063 9.348678 1.922126 18.925289 7.797369 25.51495 0.183708 3.633329 0.435455 7.273462 0.738233 10.910193 0.510299 6.269874 2.337169 12.896957 7.698711 16.635747 6.201834 4.320532 13.111282-5.160824 7.913036-10.267216a10.161754 10.161754 0 0 0-1.483269-1.221316c-1.79285-1.731615-2.697781-8.375708-2.959734-10.648239a18.136027 18.136027 0 0 0-0.326591-1.86089c1.357395-1.166884 2.088824-2.963136 1.422033-5.00093-7.695309-23.480558-6.834605-47.978312-7.916439-72.428439-0.602153-13.631787-0.469475-27.260173-0.462671-40.90897 0-12.560159-1.064824-25.576186 1.333582-37.959442 2.435827-12.594179 9.141156-24.55899 23.222006-24.314046 7.208824 0.11907 13.522924 2.765821 20.350724 4.187853-3.027774 33.363349-3.350963 65.801355-2.915508 99.477688 0.23814 18.595296 3.177462 37.183787 3.419003 55.813103 0.163296 11.770897 0.598751 26.259987 8.539004 35.530419-0.132678 6.960478 1.779243 14.461874 5.728957 18.411588 1.84388 1.854086 3.854458 2.541289 5.732358 2.456239 1.112452 4.313728 2.18408 8.607043 3.068598 12.866339 0.78586 3.772811 3.470033 5.674525 6.463788 6.069156 2.619535 5.286698 7.766751 7.341502 13.744053 9.42012 0.721223 0.248346 1.452651 0.476279 2.173874 0.724624-0.285767 1.803056-0.557927 3.589103-0.745037 5.327522-0.891322 8.24303 12.519336 8.858791 13.505914 0.959362 0.108864-0.612359 0.23814-1.292757 0.394631-2.075216a241.51091 241.51091 0 0 0 19.799601 5.075774c11.587189 2.408611 23.68808 2.520877 35.421555 3.834047 8.256638 0.928744 16.574512 0.894724 24.246007-2.221502 9.899801 3.466631 21.891827 3.391787 31.516066 3.779615 19.646512 0.789262 39.85095 1.343787 59.466844-0.08505 18.159841-1.316571 35.6699-5.007734 53.258206-9.535788 11.464718-2.959734 35.309289-3.235296 40.851136-15.672983 0.20412-0.425249 0.323189-0.850498 0.415043-1.258738 2.11604-1.163482 3.585701-3.354365 3.401994-6.623681-0.190512-3.381581-0.428651-6.807389-0.986578-10.158352-0.217728-1.336983-0.578339-2.769223-0.925342-4.238884 0.08505-2.854272-0.442259-5.9739-1.16008-8.92683-0.476279-1.918724-1.935734-3.007362-3.582299-3.378179-0.013608-0.367415-0.013608-0.745037-0.023814-1.115854 0.442259-0.996784 0.796066-2.017382 1.047814-3.082206 2.313355-0.745037 4.116412-2.697781 4.048372-5.762977-0.642977-30.492066-0.316385-60.763003 0.323189-91.360532 0.663389-31.240505 9.780731-64.110565 5.681329-95.221794 2.673967-0.452465 5.34113-0.915136 7.994685-1.394817 20.422166-3.684359 26.460704 10.661847 28.865913 27.358831 0.653183 4.602897 1.374405 9.287442 2.126246 13.97879-0.272159 9.127548 0.642977 18.425196 0.711017 27.488107 0.122472 17.724385-0.432053 35.469183-1.166884 53.176558-1.156678 27.304399-6.375336 62.879043 11.975017 85.634977 2.578711 3.197874 7.569435 0.408239 7.613661-3.160452 0.214326-13.22695-2.163668-26.117103-2.844067-39.337249-0.806272-15.958751 0.275561-32.097807 0.877715-48.042951 0.993382-26.705648 3.320346-57.578738-2.762419-84.420465l0.03402-0.323189c-1.364199-7.416346-2.806645-14.829289-4.545063-22.058525-5.837821-24.341262-31.162259-27.950777-52.186578-23.796944-28.712824 5.681329-57.197714 6.035136-84.260572-3.89188-3.112824-3.075402-6.39915-5.929674-11.083694-7.865409-9.151362-3.776213-19.996917-4.844439-29.675588-7.664691-0.163296-0.506897-0.306179-1.020598-0.469475-1.530897-2.81685-9.273834-3.623123-19.013741-4.30012-28.634578-0.724625-10.559787 1.939136-23.004279-0.360611-33.649116 41.341023-5.23907 82.532359-23.929621 107.581236-57.588943 11.046272-14.832691 17.455628-30.328771 20.741953-46.940705 5.371748 6.885635 12.369648 12.33903 20.867827 15.645768 4.636917 1.799654 8.903017 0.248346 11.753888-2.782831 1.296159 0.578339 2.663761 0.894724 4.177647 0.802871 3.626525-0.23814 6.422963-3.422405 5.42618-7.120373-1.8779-6.94687-7.736133-12.260784-11.321834-18.336744-4.432797-7.528611-11.274206-16.132252-13.369834-25.089701 1.251934-0.585143 2.486857-1.231522 3.687761-1.92893 8.831575 10.685661 19.377754 18.411588 33.819216 19.959495 9.450738 1.010392 18.275508-4.419189 19.30291-12.566963 1.26214-0.227934 2.534485-0.762047 3.735389-1.735017 1.782645-1.439043 1.268944-4.075588 0-5.592877-1.850684-2.211296-4.208266-2.490259-6.715535-3.752399-2.799841-1.411827-5.228864-3.742193-7.593249-5.769781-1.115854-0.952558-2.292944-1.823468-3.473436-2.687574 4.616505 0.690605 12.686033 0.857302 18.659934-0.782459 1.272346 1.129462 2.595721 2.187482 4.024558 3.099216 5.786791 3.680957 11.876359-3.405395 8.926831-8.937036-4.694751-8.848585-10.614219-16.292146-14.332598-25.793914-3.364571-8.593435-5.00093-17.714179-8.011695-26.409674-3.361169-9.705887-5.490817-20.126193-7.848398-30.124652-0.295973-1.241728-0.578339-2.483455-0.864107-3.714976 5.130206 4.500837 10.794525 8.07293 17.918299 9.818153 5.293502 1.292757 12.104292 1.605741 16.319363-1.503682 2.738605 0.986578 5.660917 1.360797 8.811162 0.779057 2.660359-0.493289 3.895282-4.031362 2.527681-6.191628M365.200585 808.687841a309.969223 309.969223 0 0 0-3.619721 16.696983c-0.309581 1.071628-0.595349 2.156864-0.881116 3.2421a1333.360266 1333.360266 0 0 0-2.3882-34.690127c2.500465 0.272159 5.27309-0.374219 7.807575-1.700996 0.23814 0.602153 0.459269 1.204306 0.707615 1.806458 0.605555 0.898126 1.319973 1.677183 2.119441 2.391601-0.884518 4.014352-2.762419 8.27705-3.745594 12.253981m10.17196 82.862352c-0.163296 0.476279-0.316385 0.942352-0.472877 1.415229-0.782458-0.78586-1.874498-1.136266-3.010764-1.122658-0.15309-1.07503-0.329993-2.160266-0.438857-3.218286-0.224532-2.109236-0.486485-4.208266-0.748439-6.307295 1.098844-0.88792 2.03099-2.13305 2.629741-3.776213 2.017382-5.426179 3.320346-11.12792 4.201462-16.924917 1.258738 0.149688 2.554897 0.020412 3.766006-0.398033-1.905116 10.175362-3.708173 20.25887-5.926272 30.332173m6.661103-103.907083c-1.479867-2.493661-2.946126-4.93289-4.371562-7.38913 2.704585-3.714977 4.854645-7.712319 4.422592-11.104106 0.748439 5.912664 0.340199 12.325422-0.05103 18.493236m-72.088239-248.893236c-2.139854-0.530711-4.225276-2.289542-6.41616-2.279336-1.714605 0.010206-3.694565 0.01701-5.252678-0.796066a59.514472 59.514472 0 0 0 6.647495-12.815309c2.531083 5.623495 5.599681 11.097302 8.875801 16.496266a26.712452 26.712452 0 0 1-3.854458-0.605555m20.687521 1.07503c-6.637289-6.722339-11.570179-17.404598-15.839681-25.66804-6.00792-11.607601-6.882233-25.916385-1.704399-37.93903 6.222246-14.458472 20.081967-6.463787 29.189103 2.228306 0.503495 15.036811 1.156678 30.083827 1.969755 44.974352 0.449063 8.521993 1.071628 16.955535 2.095628 25.256398-5.698339-1.721409-10.872771-3.95992-15.710406-8.851986m16.50307 33.601488c-4.13002 0.762047-8.402924 0.983176-12.563561 1.598937h-0.027216c1.374405-4.841037 1.837076-9.845369 1.8779-15.217116a32.295123 32.295123 0 0 0 11.920585 1.564917c0.707615 3.752399 1.547907 7.480983 2.544691 11.158538-1.258738 0.326591-2.514073 0.666791-3.752399 0.894724m51.393914 417.152425c-2.017382-0.734831-3.949714-1.578525-5.630299-2.619535 1.435641 0.901528 3.32715 1.000186 4.541661-0.078245 0.391229 0.544319 0.775654 1.054618 1.163481 1.564916-0.03402 0.374219-0.044226 0.755243-0.074843 1.132864m-2.793037-185.946153c0.23814-1.898312 0.442259-3.800027 0.598751-5.691534 0.108864-0.11907 0.227934-0.231336 0.306179-0.40824 0.207522-0.568133 0.469475-1.078432 0.731429-1.598937-0.476279 2.568505-1.027402 5.13701-1.636359 7.698711m17.904691 20.792984c-0.918538-6.215442-9.624239-4.926086-11.304824 0-0.411641 1.190698-0.87091 2.381395-1.296159 3.558485 3.163854-13.948173 6.232452-27.83511 5.10299-42.313993-0.25515-3.248904-5.164226-5.456797-6.803987-1.847283-0.78586 1.735017-1.615947 3.456425-2.442631 5.174432 0.261953-6.164412 0.333395-12.345834 0.523907-18.56808a23.235615 23.235615 0 0 0-1.16008-7.613661c3.640133-0.357209 7.807575-0.765449 10.808133-2.381395-2.435827 22.568824 4.545063 45.532279 14.227136 65.590432 8.120558 16.839867 16.635748 33.519841 27.420067 47.508837a64.910033 64.910033 0 0 0-2.803243-1.524093c-3.204678-1.609143-6.889037-0.340199-8.447149 2.347375-0.061236 0-0.10206-0.010206-0.142884-0.010206-3.2421 0-5.528239 1.435641-7.144186 3.602711 1.496877-14.329196 0.364013-28.437262-8.470964-31.954923-2.609329-1.04101-5.007734-0.762047-7.239442 0.483083 0.391229-7.399336 0.261953-14.751043-0.826684-22.051721m29.413635 129.632957c-1.27915-0.115668-2.565103-0.227934-3.844253-0.35721 0.996784-0.598751 1.864292-1.309767 2.629741-2.126245 0.404837 0.833488 0.80287 1.663575 1.214512 2.483455m-20.864426-2.26913c-1.496877-0.20412-3.00396-0.421847-4.504239-0.639575 0.323189-1.857488 0.557927-3.629927 0.755243-5.198246 1.051216 2.224904 2.282738 4.221874 3.748996 5.837821m28.406645 48.287894l-0.381023-0.040824a217.717369 217.717369 0 0 1-34.863628-5.885449c0.360611-0.22113 0.728027-0.415043 1.102246-0.687202 0.03402-0.027216 0.06804-0.057834 0.112265-0.074844 4.96691 0.755243 10.17196 0.928744 14.689808 1.571721 5.18804 0.741635 10.457728 1.10905 15.754631 1.367601 0.762047 0.193914 1.422033 0.340199 1.969754 0.455867 0.850498 0.411641 1.718007 0.830086 2.575309 1.258738a4.184452 4.184452 0 0 0-0.959362 2.034392m136.365502-56.381236c0.88792-0.666791 1.694193-1.360797 2.517475-2.054804 0.149688 0.748439 0.282365 1.517289 0.476279 2.245316-0.98998-0.06804-1.990166-0.125874-2.993754-0.190512m17.690365-79.215415c-0.071442 1.340385 0.210924 2.517475 0.700811 3.558485-0.884518 1.204306-1.775841 2.422219-2.622937 3.643535-1.136266 1.619349-2.071814 3.320346-2.925714 5.05196-1.449249-5.545249-3.633329-10.450924-6.940067-13.141901 4.997528-5.664319 9.920213-11.396678 15.023203-17.009966-1.643163 6.001116-2.915508 11.998831-3.235296 17.894485m3.725183 88.587907c0.112266-0.112266 0.18711-0.224532 0.295973-0.336798 0.493289 0.534113 1.068226 0.962764 1.649967 1.340386a28.073249 28.073249 0 0 0-3.099216 2.184079c0.381023-0.874312 0.632771-1.79285 0.653183-2.759016 0.1701-0.142884 0.350405-0.272159 0.500093-0.428651m34.666312 1.003588c0.717821-0.020412 1.405023-0.11907 2.037794-0.3402 0.319787 0.381023 0.602153 0.782458 0.877714 1.224718a27.113887 27.113887 0 0 0-1.8779 0.847096c-0.013608-0.027216-0.023814-0.057834-0.047628-0.08505-0.316385-0.544319-0.646379-1.088638-0.993382-1.646564m-1.718007-64.950858a92.629475 92.629475 0 0 0-0.816478-5.487415c0.404837 0.659987 0.915136 1.238326 1.500279 1.728213-0.227934 1.258738-0.466073 2.510671-0.683801 3.759202m-1.77584-10.348863c-0.602153-2.813449-1.275748-5.541847-1.901714-8.130764a3.963322 3.963322 0 0 0-1.683987-2.381396c-0.013608-1.394817-0.020412-2.782831-0.040824-4.160638 1.360797 1.588731 3.384983 2.677369 5.480611 3.082206a74.119229 74.119229 0 0 0-1.854086 11.590592m-2.153462 37.826764c0.251748-0.418445 0.421847-0.867508 0.646379-1.299562-0.18711 3.061794-0.347003 6.123588-0.493289 9.185382-0.272159-0.483083-0.554525-0.962764-0.826685-1.452651-1.626153-2.959734-5.865037-2.143256-6.919654 0.789263 0-1.020598 0.01701-2.027588 0.064638-3.034578 2.946126-0.081648 5.895654-1.449249 7.528611-4.187854m-53.4181-12.583974c-4.912478 7.13398-9.175176 14.717023-9.974644 23.167575-0.10206 0.06804-0.20412 0.142884-0.309581 0.20412 0.224532-3.653741 0.425249-7.35511 0.806272-11.138126 0.088452-0.275561 0.163296-0.547721 0.251747-0.830087a26.603588 26.603588 0 0 0 1.452652-2.776026c0.272159-0.642977 3.109422-13.471894 7.773554-8.627456m-4.606299-12.672425c0.108864-0.381023 0.20412-0.762047 0.329994-1.153276 0.697409-2.245316 2.810047-7.848399 5.398963-11.702857 0.316385 1.683987 0.493289 3.555083 0.622565 5.49422-0.03402 0.387827-0.010206 0.792664 0.074844 1.207707 0.146286 3.041382 0.166698 6.113382 0.217727 8.702299a10.988439 10.988439 0 0 0-6.266471-0.425249 5.130206 5.130206 0 0 0-0.377622-2.122844m-3.058392 83.968c0.483083 0.629369 0.969568 1.27915 1.496877 1.860891-1.769037 0.496691-3.592505 0.90493-5.443189 1.292757a27.729648 27.729648 0 0 1-7.079548-3.333953c3.19107 0.163296 7.164598 0.449063 11.02586 0.180305m-12.577169-81.501555c-3.851056 5.330924-6.02493 11.859349-8.266844 18.302725-1.313169 0.05103-2.592319 0.047628-3.752399 0.054431a120.64489 120.64489 0 0 1-7.484385-0.166697c-1.411827-1.666977-2.874684-3.306738-4.480425-4.749183 9.008478-3.112824 17.394392-10.464532 24.861767-16.302352-0.306179 0.949156-0.602153 1.905116-0.877714 2.861076m-39.238591 63.661502c0.200718-0.272159 0.418445-0.537515 0.571534-0.83689 1.84388 0.261953 3.687761 0.530711 5.531642 0.762046-1.27915 0.013608-2.565103 0.013608-3.844253 0.027216-0.748439 0.010206-1.496877 0.03402-2.258923 0.047628m-22.929436 0.11907c0.027216-1.391415-0.05103-2.799841-0.139481-4.184452 1.881302 1.643163 3.837449 3.095814 5.851428 4.320531-1.898312-0.06804-3.796625-0.098658-5.715349-0.136079m-0.333395-34.836412c-1.837076-1.12606-3.470033-1.622751-4.922684-1.670379-1.200904-1.724811-2.398405-3.429209-3.602711-5.109794l1.224717 0.432053c2.912106 1.068226 5.916066 2.041196 8.947243 2.959734v0.10206c0.190512 1.690791 0.408239 3.344159 0.656585 4.966911a18.881063 18.881063 0 0 0-2.30315-1.680585m174.35216-159.444625c-1.741821 6.38214-4.177648 12.532944-6.480798 18.744984-1.068226 2.871282-1.755429 6.07596-2.279335 9.399707a5.769781 5.769781 0 0 0-3.657143 0.830087c1.034206-10.30804 1.068226-20.929063-4.585887-27.113887a201.105435 201.105435 0 0 0 17.006564-1.860891m-21.255654 169.888744c1.340385-15.764837 2.292944-31.243907 4.177648-46.855654-0.401435 9.814751-0.782458 19.629502-0.860704 29.45786-0.06804 6.688319-0.850498 14.410844 0.074843 21.507402a109.220997 109.220997 0 0 0-1.088637 9.648054c-0.010206 0.23814-0.03402 0.442259-0.05103 0.646378-0.741635 0.574937-1.251934 1.371003-1.425436 2.289542-0.299375 0.408239-0.622565 0.789262-0.88792 1.204305a28.403243 28.403243 0 0 0-3.252306-3.810232c2.092226-4.565475 3.007362-10.406698 3.313542-14.084253m-5.436385-167.718272c-0.23814 0.581741-0.394631 1.190698-0.329994 1.857488 0.03402 0.455867 0.023814 0.90493 0.057834 1.360798-1.251934 0.925342-2.143256 2.377993-2.190884 4.211667a1.86089 1.86089 0 0 0-0.091853-0.074843c-0.040824 0.775654-0.13608 1.537701-0.197316 2.303149-1.299561-1.503681-3.395189-1.714605-5.150618-1.000186-1.735017-3.721781-7.20202-5.092784-10.10392-2.541289a50.172598 50.172598 0 0 0-3.606113-6.776771c7.474179 0.585143 14.900731 0.619163 21.612864 0.656585m-27.205741 186.949741a10.17196 10.17196 0 0 0 1.296159-2.000372c0.731429 1.588731 1.541103 3.153648 2.398406 4.684545a11.396678 11.396678 0 0 0-3.694565-2.687575m-5.711947-179.509582a62.58307 62.58307 0 0 0-3.555083-9.563003c8.457355 6.613475 11.495336 17.166458 12.291402 28.464479-2.687575 8.270246-5.776585 16.424824-8.001489 24.871973-5.861635 8.34509-13.846113 15.700199-20.282684 22.582432-11.770897 12.580571-21.660492 25.817728-34.741156 37.319867-6.351522 5.592877-13.635189 10.546179-20.670512 15.247734-8.590033 5.749369-18.353754 4.687947-28.090259 4.269502-39.323641-1.697595-57.752239-32.509449-73.639548-64.246645-8.780545-17.533874-17.30594-34.101581-18.976319-54.040664-0.23814-2.796439-2.490259-18.666738 1.803057-18.881063 0.415043-0.010206 0.816478-0.064638 1.221315-0.108864-1.044412 14.244146 10.569993 33.625302 14.016213 43.851694 6.790379 20.173821 18.132625 35.595056 33.227269 50.437954 12.801701 12.570365 31.179269 30.379801 51.04691 29.311575 20.098977-1.068226 31.934512-14.526512 44.283748-29.107456 15.166086-17.908093 32.152239-33.900864 42.657594-55.306206 2.803243-5.705143 9.287442-18.268704 7.409542-25.103309m-66.291243-24.463734c2.942724 2.28614 7.324492 1.027402 7.477582-3.102618 0.03402-0.796066 0.020412-1.575123 0-2.347375 10.631229 4.143628 23.582618 3.436013 32.193063 13.029634 4.477023 4.994126 7.715721 8.954047 11.250392 14.669396 4.562073 7.426551-3.89188 22.857993-7.610259 29.556518-9.389502 16.860279-23.201595 30.100837-35.496399 44.668173-5.926272 7.01491-11.590591 13.975389-19.023947 19.500226-9.995056 7.429953-22.857993 3.558485-33.019747-1.115854-16.17988-7.436757-31.369781-24.950219-41.888744-39.037874-10.896585-14.608159-15.533502-33.649116-21.728532-50.601249-0.687203-1.881302-2.932518-13.604571-5.12-13.641993a75.139827 75.139827 0 0 0 11.440904-0.568133c6.96388-0.918538 13.822299-3.146844 20.24186-5.939881 3.817037-1.670379 7.892625-4.048372 11.015655-7.018312 2.742007 0.894724 6.341316-0.23814 6.899242-3.436013 4.388571-25.542166 2.813449-54.139322-3.252305-79.569223 15.20691 1.752027 30.209701 2.330365 44.049009 2.15006 3.381581-0.044226 6.776771-0.20412 10.185569-0.421847-3.524465 11.600797-2.908704 25.729276-2.643349 36.996678 0.367415 15.101449 2.292944 36.367309 15.030006 46.229687m146.037369-196.989023c1.677183 3.289728 3.643535 8.300864 6.242658 12.696239-1.146472 1.071628-2.469847 0.401435-5.10299-0.435455-7.03192-2.221502-13.641993-7.348306-18.078193-13.604571 0.993382-7.712319 1.411827-15.666179 1.360798-23.92622 3.347561-0.10206 6.518219-0.680399 9.569807-1.612545-0.057834 9.498365 1.333581 17.737993 6.00792 26.882552m-15.751229-36.629262c-0.289169-14.257754-0.83689-28.525714-0.945754-42.793675v-0.459269c3.786419-4.640319 11.641621-6.28008 18.51705-4.640319 7.759947 1.857488 11.355854 12.230166 11.668837 19.085183 0.557927 11.940997-17.003163 22.650472-29.243535 28.80808m58.252332 6.603269c0.87091 0.925342 1.864292 1.864292 2.93592 2.742006-0.612359 1.115854-1.197502 2.23511-1.796252 3.36117-1.598937 3.048186-9.161568 1.673781-12.077076 1.626153-7.603455-0.13608-16.662963-6.184824-24.106525-11.505542 5.12-3.721781 9.750113-8.358698 13.941368-13.383442 0.840292-1.013794 1.564917-2.06501 2.25212-3.136638a19.391362 19.391362 0 0 0 0.884518 0.802871 1041.125635 1041.125635 0 0 0 17.965927 19.493422m-2.93592-119.872638c-1.411827-1.292757-3.024372-1.384611-4.344346-0.806273-1.068226-0.214326-2.139854 0.867508-2.160265 2.041196-0.632771 1.268944-0.612359 2.83386 0.500093 4.235482 0.884518 8.800957 0.340199 18.054379 1.088638 26.865542 0.898126 10.529169 3.718379 20.758963 5.967096 31.043189 2.221502 10.056292 5.443189 22.146977 11.19596 31.995747-3.000558 0.234738-6.17802 0.129276-9.09693-0.282365-4.511043-0.632771-11.226578-1.275748-15.44505-4.204864 2.088824-8.896213-0.105462-18.527256-5.402366-26.67503-8.12396-12.50913-23.089329-14.645581-36.122365-9.457541a25.41289 25.41289 0 0 0-2.449435 1.129462c-0.010206-12.063468-0.326591-24.290233-2.833861-35.84-0.918538-4.235482-7.613661-4.235482-8.532199 0-11.917183 54.887761 12.679229 117.515056-18.48303 167.779508-25.501342 41.123296-75.75899 59.286538-122.046512 61.038565-53.21398 2.007176-122.254033-9.739907-153.2598-57.782857-15.077635-23.351282-16.186684-52.475748-18.234685-79.348093-1.97996-26.076279-5.858233-53.394286-5.606485-79.514791 0.054432-5.596279-8.726113-5.596279-8.671681 0 0.122472 12.111096 0.394631 24.348066 0.755243 36.598644-5.524837-5.572465-12.128106-9.712691-20.469794-10.702671-6.715535-0.799468-11.958007 2.908704-15.768239 8.236226-1.636359-7.348306-3.735389-14.584346-5.950087-21.510804-5.398963-16.805847-13.526326-32.723774-19.26889-49.434365-6.538631-19.074977-5.194844-40.361249-1.449249-59.888691 6.769967-35.190219 26.021847-63.889435 46.641329-92.418552 19.527442-27.028837 50.271256-61.310724 85.740438-65.886405-0.010206 0.08505-0.020412 0.163296-0.020412 0.244943-0.020412 2.13305 3.463229 2.714791 3.800027 0.517103 0.06804-0.398033 0.176904-0.762047 0.258551-1.156677 0.510299-0.03402 1.027402-0.08505 1.541103-0.10206 3.572093-0.13608 3.725183-5.334326 0.493289-5.762977 6.375336-12.907163 23.395508-21.051535 35.132386-27.474498 18.044173-9.865781 40.272797-12.655415 60.419402-14.397236 38.187375-3.299934 82.008452 10.127734 116.5659 25.576186 34.173023 15.285156 59.497462 40.72186 76.211455 74.020571 18.234684 36.316279 18.979721 75.762392 26.018445 114.844492 0.023814 0.125874 0.10206 0.20412 0.132678 0.319787a4.456611 4.456611 0 0 0 0 1.490074c3.340757 20.027535 8.011694 35.380731 18.030565 52.955428 2.687575 4.711761 6.106578 10.518963 10.301236 15.41103-9.491561-1.04101-18.013555-7.113568-25.174751-13.696425" fill="#38383A" p-id="3686"></path><path d="M570.160478 299.395827c-0.673595-1.524093-0.952558-3.112824-1.745222-4.616505-0.680399-1.319973-1.677183-2.721595-2.582113-3.902086-1.779243-2.326963-4.102804-3.90889-6.137196-5.977302-4.177648-4.262698-10.937409 2.626339-6.491003 6.497807 1.898312 1.663575 4.092598 2.9019 5.87184 4.691349 2.517475 2.510671 3.572093 5.708545 6.773369 7.589847 2.959734 1.735017 5.484013-1.571721 4.310325-4.28311" fill="#38383A" p-id="3687"></path><path d="M590.415947 291.186817a47.893262 47.893262 0 0 0-2.075216-5.616691c-1.088638-2.561701-4.803615-3.112824-6.987694-1.837076-2.463043 1.439043-3.170658 4.545063-1.837077 6.9979 0.918538 1.687389 1.16008 2.313355 1.826871 4.024558 0.894724 2.313355 1.758831 4.075588 3.837448 5.555455 2.844066 2.03099 6.04194-0.782458 6.317502-3.629926 0.18711-1.871096-0.578339-3.714977-1.081834-5.49422" fill="#38383A" p-id="3688"></path><path d="M628.80404 223.034684c-6.147402-3.143442-11.566777 6.038538-5.422778 9.270432 3.929302 2.068412 7.30408 4.650525 10.44412 7.773555 3.344159 3.330551 5.347934 7.103362 7.824585 11.025861 2.551495 4.024558 9.617435 2.673967 9.375893-2.541289-0.547721-11.379668-12.941183-20.762365-22.22182-25.528559" fill="#38383A" p-id="3689"></path><path d="M673.118405 246.055973c-2.347375-3.85786-3.473435-8.008292-6.596465-11.478325-3.129834-3.493847-7.035322-2.687575-11.104106-2.537887-3.837449 0.13608-3.823841 5.783389 0 5.92287 3.2421 0.129276 4.323934 1.507083 5.929674 4.252492 0.90493 1.524093 1.541103 3.197874 2.446034 4.735575 0.959362 1.615947 3.00396 2.857674 4.507641 3.929302 2.95293 2.078618 6.565847-1.939136 4.817222-4.824027" fill="#38383A" p-id="3690"></path><path d="M618.958671 250.529595c-2.544691-2.214698-5.841223-4.500837-9.355482-4.477024-4.772997 0.03402-4.507641 6.701927 0 7.212226-0.438857-0.054432-0.438857-0.030618 0.006804 0.078246-0.612359-0.180306 0.547721 0.316385 0.557927 0.319788 0.591947 0.336797 1.020598 0.680399 1.530897 1.132863 1.156678 1.013794 2.401807 2.292944 3.29313 3.459828 1.010392 1.299561 1.687389 2.86788 2.789634 4.07899 1.762233 1.898312 5.885449 1.180492 6.300492-1.670379 0.574937-3.915694-2.279336-7.671495-5.123402-10.13794" fill="#38383A" p-id="3691"></path><path d="M333.78998 277.466578c-7.314286 3.912292-14.560532 11.410286-17.139242 19.425382-0.632771 1.99697 2.323561 2.687575 3.068598 0.843694 2.891694-7.106764 9.107136-13.686219 15.853289-17.231096 2.003774-1.054618 0.224532-4.11301-1.782645-3.03798" fill="#38383A" p-id="3692"></path><path d="M342.98897 284.872718c-5.041754 3.786419-13.29499 7.062538-10.716279 14.941554 0.595349 1.80986 3.640133 2.745409 4.558671 0.588545 1.956146-4.613103 5.113196-8.957449 8.192-12.900359 1.068226-1.360797-0.360611-3.878272-2.03099-2.62974" fill="#38383A" p-id="3693"></path><path d="M378.015894 291.285475c-2.633143 0.738233-4.531455 2.160266-6.691721 3.800027-2.15006 1.632957-4.28311 3.279522-6.201834 5.17103-3.333953 3.272718 1.745223 8.331482 5.096186 5.106392 3.694565-3.558485 9.219402-5.919468 10.811535-11.059881 0.544319-1.803056-1.258738-3.504053-3.014166-3.017568" fill="#38383A" p-id="3694"></path></svg>