<?xml version="1.0" standalone="no"?><!DOCTYPE svg PUBLIC "-//W3C//DTD SVG 1.1//EN" "http://www.w3.org/Graphics/SVG/1.1/DTD/svg11.dtd"><svg t="1534307661325" class="icon" style="" viewBox="0 0 1024 1024" version="1.1" xmlns="http://www.w3.org/2000/svg" p-id="3812" xmlns:xlink="http://www.w3.org/1999/xlink" width="30" height="30"><defs><style type="text/css"></style></defs><path d="M512 512m-512 0a512 512 0 1 0 1024 0 512 512 0 1 0-1024 0Z" fill="#EEB47E" p-id="3813"></path><path d="M232.727273 166.012121s-13.032727 148.945455 31.030303 200.145455c0 0-24.824242 59.578182-6.206061 118.535757l19.238788-7.757575s16.135758 18.618182 32.581818 27.306666c0 0 12.412121-25.444848 11.791515-83.161212 0 0 123.500606 84.402424 397.187879 60.509091v22.341818s25.444848-16.135758 37.236364-25.444848l19.238788 9.929697s34.753939-232.727273-190.836364-303.476364c0 0-83.161212-26.375758-261.275151-19.238788 0 0.310303-80.678788 7.447273-89.987879 0.310303z" fill="#C23625" p-id="3814"></path><path d="M735.418182 398.118788l-219.694546 30.409697-220.935757-30.409697-21.100606 44.683636s4.344242 136.22303 30.409697 182.458182 66.715152 71.990303 70.749091 73.852121c4.033939 2.172121 48.717576 29.789091 138.705454 28.858182 92.16 1.551515 137.464242-26.996364 141.808485-29.168485 4.033939-2.172121 44.993939-27.927273 70.749091-73.852121s30.099394-182.458182 30.099394-182.458182l-20.790303-44.373333z" fill="#F7D9DD" p-id="3815"></path><path d="M239.553939 518.516364a44.06303 42.201212 0 1 0 88.126061 0 44.06303 42.201212 0 1 0-88.126061 0Z" fill="#F7D9DD" p-id="3816"></path><path d="M701.284848 518.516364a44.06303 42.201212 0 1 0 88.126061 0 44.06303 42.201212 0 1 0-88.126061 0Z" fill="#F7D9DD" p-id="3817"></path><path d="M475.694545 723.006061v53.372121h81.299394v-71.059394z" fill="#F7D9DD" p-id="3818"></path><path d="M259.413333 957.595152c74.472727 42.201212 160.73697 66.404848 252.586667 66.404848 96.193939 0 185.871515-26.375758 262.826667-72.610909-11.170909-114.812121-121.949091-205.110303-257.241212-205.110303-137.774545 0-250.414545 93.401212-258.172122 211.316364z" fill="#5C656F" p-id="3819"></path><path d="M638.603636 772.344242c-35.995152-16.756364-77.265455-26.065455-121.018181-26.065454-44.373333 0-86.264242 9.619394-122.569697 26.68606 22.962424 28.858182 68.887273 48.717576 121.638787 48.717576 53.061818 0.310303 98.986667-19.859394 121.949091-49.338182z" fill="#FFFFFF" p-id="3820"></path><path d="M516.344242 781.34303L460.179394 812.993939v-76.955151l56.164848 38.477576 57.095758-38.477576V812.993939z" fill="#101010" p-id="3821"></path></svg>