<?xml version="1.0" standalone="no"?><!DOCTYPE svg PUBLIC "-//W3C//DTD SVG 1.1//EN" "http://www.w3.org/Graphics/SVG/1.1/DTD/svg11.dtd"><svg t="1534307612189" class="icon" style="" viewBox="0 0 1026 1024" version="1.1" xmlns="http://www.w3.org/2000/svg" p-id="1925" xmlns:xlink="http://www.w3.org/1999/xlink" width="30.05859375" height="30"><defs><style type="text/css"></style></defs><path d="M737.554 530.828c-0.17 10.784-0.366 21.784-0.366 32.954 0 17.919-1.695 34.72-4.861 50.419 5.519-25.474 6.99-52.547 5.227-83.373zM296.81 563.366c0-8.205-0.113-16.277-0.238-24.212a579.016 579.016 0 0 0 0.238 24.212z m249.114 216.002a3.111 3.111 0 0 0 0.97-0.184c-0.704 0.088-1.412 0.138-2.116 0.221l1.146-0.037z m185.542-161.31c0.233-0.987 0.466-1.983 0.687-2.978-0.208 1.008-0.466 1.978-0.687 2.978z" fill="#A0D9F6" p-id="1926"></path><path d="M514.164 0.033C231.52 0.033 2.362 229.197 2.362 511.84c0 188.94 102.42 353.962 254.749 442.628 17.04-47.953 45.937-86.055 81.907-114.232 22.437-17.735 48.119-31.946 76.42-42.096-59.535-51.84-61.23-65.946-40.759-63.997-29.626-23.066-53.217-54.658-66.367-94.768 4.761 15.048 11.209 29.414 19.901 43.304-194.655-187.691-50.456-538.492 186.076-414.226v-0.063l0.112 0.12a263.586 263.586 0 0 1 11.046-5.48c0.787-0.367 1.566-0.675 2.35-1.033a249.46 249.46 0 0 1 8.608-3.77c0.171-0.07 0.338-0.125 0.508-0.191 151.672-61.606 263.7 77.025 260.106 225.78-1.145 71.157-28.589 144.2-90.532 197.564 0.191-0.342 0.354-0.68 0.545-1.02-13.457 22.445-30.805 41.117-50.743 56.053 10.213 3.365 5.952 19.997-28.547 61.972h-0.267c28.144 10.176 53.692 24.354 76.009 42.039 34.137 26.802 61.918 62.538 79.178 107.18 145.995-90.153 243.312-251.588 243.312-435.76 0-282.647-229.159-511.81-511.81-511.81z" fill="#A0D9F6" p-id="1927"></path><path d="M703.484 840.42c35.14 27.843 62.247 64.33 79.074 107.246 0.033-0.02 0.07-0.041 0.1-0.066-17.252-44.646-45.033-80.382-79.174-107.18zM544.78 779.404c0.704-0.083 1.412-0.133 2.116-0.22 10.634-3.17 88.97-49.511 109.4-42.78 19.935-14.936 37.282-33.608 50.744-56.054 11.458-20.555 19.413-40.897 24.428-62.297 0.22-1 0.479-1.97 0.687-2.978 0.067-0.292 0.113-0.588 0.175-0.875 3.166-15.702 4.86-32.504 4.86-50.419 0-11.17 0.197-22.17 0.367-32.954-0.783-13.678-2.182-28.09-4.144-43.43-96.576 5.903-165.05-28.218-219.121-82.643C438.376 456.47 366.12 486.22 298.47 487.4c-1.008 18.276-1.724 35.436-1.89 51.751 0.124 7.935 0.233 16.01 0.237 24.212 0.887 27.631 4.12 52.672 11.504 76.004 13.149 40.11 36.74 71.702 66.366 94.769 31.718 3.015 116.652 44.554 122.25 44.05 19.438 2.549 28.585 1.812 47.844 1.22z m-205.763 60.831c-35.97 28.177-64.868 66.28-81.907 114.232l0.017 0.012c16.598-45.978 44.791-84.917 81.89-114.244z" fill="#FCE9EA" p-id="1928"></path><path d="M703.484 840.42c-22.317-17.686-47.865-31.86-76.009-42.039l-211.895-0.116a1.945 1.945 0 0 0-0.146-0.125c-28.301 10.154-53.983 24.365-76.42 42.096-37.1 29.327-65.293 68.27-81.89 114.244 75.538 43.967 163.342 69.166 257.036 69.166 98.429 0 190.357-27.819 268.394-75.98-16.819-42.917-43.93-79.407-79.07-107.247z" fill="#CFE07D" p-id="1929"></path><path d="M415.584 798.265l211.895 0.116h0.267c34.5-41.976 38.764-58.607 28.547-61.972-20.425-6.731-98.766 39.61-109.4 42.78a3.149 3.149 0 0 1-0.97 0.183l-1.142 0.037c-19.259 0.592-28.406 1.329-47.852-1.216-5.594 0.504-90.529-41.039-122.25-44.05-20.476-1.95-18.776 12.158 40.76 63.997a1.945 1.945 0 0 1 0.145 0.125z" fill="#ED7667" p-id="1930"></path><path d="M536.41 258.227c0.17-0.07 0.337-0.125 0.508-0.191l-0.508 0.191zM296.575 539.154c0.171-16.314 0.883-33.479 1.891-51.75 67.65-1.184 139.906-30.935 215.823-82.645V268.453c-236.532-124.266-380.727 226.53-186.072 414.222-8.692-13.895-15.14-28.256-19.9-43.304-7.385-23.333-10.617-48.374-11.504-76.005a565.074 565.074 0 0 1-0.238-24.212zM525.447 263.03c0.787-0.367 1.566-0.675 2.35-1.033-0.784 0.358-1.559 0.662-2.35 1.033z m181.044 418.345c61.943-53.363 89.387-126.406 90.532-197.562-1.699 70.281-29.189 142.82-90.532 197.562z" fill="#FBCE77" p-id="1931"></path><path d="M514.289 404.755c54.07 54.425 122.55 88.55 219.121 82.644 1.962 15.34 3.365 29.751 4.144 43.43 1.762 30.821 0.292 57.894-5.227 83.376-0.062 0.287-0.108 0.583-0.175 0.875-0.22 0.995-0.454 1.99-0.687 2.978-5.015 21.4-12.97 41.742-24.428 62.297-0.192 0.342-0.354 0.679-0.546 1.02 61.343-54.741 88.833-127.28 90.532-197.562 3.59-148.752-108.434-287.387-260.105-225.781-0.171 0.07-0.338 0.124-0.508 0.191-2.854 1.166-5.732 2.462-8.61 3.77-0.783 0.358-1.562 0.662-2.349 1.032a266.19 266.19 0 0 0-11.046 5.482l-0.112-0.121v136.37z" fill="#F7B970" p-id="1932"></path></svg>