<?xml version="1.0" standalone="no"?><!DOCTYPE svg PUBLIC "-//W3C//DTD SVG 1.1//EN"
        "http://www.w3.org/Graphics/SVG/1.1/DTD/svg11.dtd">
<svg t="1531920906019" class="icon" style="" viewBox="0 0 1030 1024" version="1.1" xmlns="http://www.w3.org/2000/svg"
     p-id="1244" xmlns:xlink="http://www.w3.org/1999/xlink" width="19" height="19">
    <defs>
        <style type="text/css"></style>
    </defs>
    <path d="M1030.62114 506.72206v17.177019c-2.576553 12.023913-6.870808 24.906678-7.729659 36.930591-22.330125 243.91367-222.442396 442.308239-456.049854 461.20296-291.150472 24.047827-503.286657-176.064445-549.664608-397.64799C10.306211 591.748304 6.011957 557.394266 0 523.899079v-17.177019c2.576553-12.023913 6.870808-24.906678 7.729659-36.930591C28.342081 245.631372 182.935252 67.849225 401.942244 17.177019 431.143177 10.306211 460.344109 6.011957 489.545041 0h51.531057c11.165062 2.576553 21.471274 6.870808 32.636336 7.729659 222.442396 27.48323 393.353735 183.794103 440.590538 401.942244 6.870808 32.636336 11.165062 65.272672 16.318168 97.050157zM453.473301 799.590234c57.543014 0 114.227176 1.717702 171.77019-0.858851 95.332455-3.435404 163.18168-73.002331 165.758234-167.475935 0.858851-41.224846-0.858851-83.308542 0.858851-124.533388 0.858851-26.624379-11.165062-41.224846-37.789442-41.224845-85.885095 0-171.77019-0.858851-257.655285 0-44.660249 0-36.930591 34.354038-37.789442 61.837268-0.858851 27.48323 0.858851 52.389908 39.507144 51.531057 42.942547-0.858851 85.885095-1.717702 128.827642 0.858851 16.318168 0.858851 42.942547 6.870808 46.377952 17.177019 5.153106 16.318168 1.717702 42.942547-9.447361 54.966461-14.600466 16.318168-39.507144 30.918634-60.978417 31.777485-69.566927 4.294255-139.992705 0.858851-210.418483 1.717702-30.059783 0.858851-41.224846-11.165062-40.365995-40.365995 0.858851-61.837268 0-122.815686 0-184.652954C352.128889 381.329822 371.882461 360.717399 450.037898 360.717399c98.767859 0 197.535718-0.858851 296.303577 0 49.813355 0.858851 43.801398-32.636336 44.66025-64.413821 1.717702-33.495187-7.729659-50.672206-45.519101-49.813355-107.356369 1.717702-214.712737 0-322.069106 0.858851-102.203263 1.717702-182.076401 78.155436-183.794103 182.076401-1.717702 109.074071 0 217.28929-0.858851 326.363361 0 34.354038 15.459317 44.660249 47.236802 44.660249 55.825312-1.717702 111.650623-0.858851 167.475935-0.858851z"
          p-id="1245" fill="#ffffff"></path>
</svg>