<?xml version="1.0" standalone="no"?><!DOCTYPE svg PUBLIC "-//W3C//DTD SVG 1.1//EN" "http://www.w3.org/Graphics/SVG/1.1/DTD/svg11.dtd"><svg t="1531928493492" class="icon" style="" viewBox="0 0 1024 1024" version="1.1" xmlns="http://www.w3.org/2000/svg" p-id="4674" xmlns:xlink="http://www.w3.org/1999/xlink" width="20" height="20"><defs><style type="text/css"></style></defs><path d="M771.358 382.035c-44.645-43.659-89.219-87.321-133.862-130.98-6.257-6.188-6.257-6.188-12.726 0.281-101.662 101.452-203.254 202.972-305.057 304.354-4.922 4.922-7.943 10.194-9.773 16.803-15.679 58.143-31.567 116.286-47.386 174.359-1.406 5.133-2.813 10.194-4.219 15.537 0.281 5.905 4.429 2.742 6.609 2.18 62.993-17.436 125.989-35.012 188.981-52.448 4.711-1.335 8.366-3.726 11.812-7.101 101.873-101.803 203.815-203.605 305.69-305.338 8.929-8.858 8.929-8.858-0.070-17.647zM696.412 382.107c-38.457 38.387-76.844 76.915-115.232 115.373-56.455 56.526-112.982 113.052-169.367 169.648-3.937 4.009-8.226 6.609-13.639 8.085-20.601 5.555-41.059 11.39-61.587 17.084-2.742 0.773-6.398 2.882-6.188-2.46 5.133-18.772 10.686-36.77 14.764-55.19 2.882-12.726 9.28-22.076 18.35-31.075 84.368-83.946 168.382-168.242 252.538-252.398 8.437-8.437 17.154-16.451 25.591-24.889 3.023-3.093 5.202-2.882 8.437 0 16.311 14.693 31.286 30.935 47.245 46.050 4.429 4.219 2.32 6.609-0.914 9.773zM932.922 185.18c-4.289-51.533-47.034-94.843-104.263-95.054-28.122-0.070-52.799 10.475-72.977 30.442-25.169 24.887-50.058 50.058-75.227 75.017-4.009 3.937-4.219 6.398-0.070 10.335 16.17 15.115 32.059 30.442 47.948 45.839 30.793 29.81 61.518 59.689 92.101 89.641 3.657 3.586 5.694 3.867 9.421 0.141 24.607-24.958 49.565-49.495 74.173-74.454 19.615-19.897 28.685-44.363 29.81-73.54-0.211-1.827-0.633-5.062-0.914-8.366zM864.021 233.268c-12.233 12.444-24.748 24.748-36.981 37.193-1.898 1.827-2.882 1.687-4.711-0.070-15.257-14.975-30.583-29.881-45.98-44.784-7.943-7.593-15.89-15.257-23.904-22.85-2.109-1.969-1.969-3.234 0-5.133 12.585-12.444 25.028-25.029 37.613-37.473 10.054-9.913 22.357-15.186 36.348-15.186 28.614 0.141 49.917 21.725 52.027 47.456 0.211 1.616 0.352 3.303 0.492 4.147-0.563 14.624-5.133 26.786-14.903 36.699zM931.515 392.863c-2.18 0.633-3.445 2.531-4.922 4.007-17.787 17.787-35.645 35.575-53.433 53.362 0.070 95.827 0.211 191.654-0.070 287.481-0.141 40.778-15.115 75.649-45.909 102.858-24.607 21.795-53.714 33.606-86.899 33.606-152.986 0.211-306.041 0.211-459.027 0-31.708-0.070-59.83-11.179-83.946-31.849-32.059-27.561-47.667-62.711-47.667-104.896 0.070-149.822 0.070-299.573 0-449.325-0.070-41.55 15.186-76.283 45.98-103.772 22.709-20.249 49.706-31.497 80.43-32.902 39.582-1.898 79.164-0.633 118.818-0.773 59.408-0.211 118.818-0.141 178.225-0.070 17.787-17.717 35.504-35.434 53.221-53.221 1.547-1.547 4.851-2.882 3.657-5.344-0.914-1.898-4.007-0.844-6.116-0.844-82.75-0.070-165.429-0.211-248.18 0-46.119 0.141-92.242-1.266-138.362 0.914-35.715 1.687-67.142 14.693-93.577 38.387-35.856 31.989-53.643 72.414-53.572 120.786 0.141 174.359 0.070 348.788 0.070 523.146 0 49.143 18.139 90.063 55.471 122.122 28.052 24.044 60.743 37.051 97.725 37.051 178.155 0.352 356.31 0.281 534.466 0.070 38.598 0 72.485-13.78 101.17-39.161 35.786-31.637 53.292-72.275 53.433-119.801 0.352-125.075 0.141-250.219 0.070-375.363 0-2.038 0.703-4.358-1.055-6.468z" p-id="4675" fill="#ffffff"></path></svg>