<?xml version="1.0" standalone="no"?><!DOCTYPE svg PUBLIC "-//W3C//DTD SVG 1.1//EN" "http://www.w3.org/Graphics/SVG/1.1/DTD/svg11.dtd"><svg t="1534251057660" class="icon" style="" viewBox="0 0 1024 1024" version="1.1" xmlns="http://www.w3.org/2000/svg" p-id="2485" xmlns:xlink="http://www.w3.org/1999/xlink" width="20" height="20"><defs><style type="text/css"></style></defs><path d="M512 208c-105.6 0-192 86.4-192 192s86.4 192 192 192 192-86.4 192-192-86.4-192-192-192z m0 320c-70.4 0-128-57.6-128-128s57.6-128 128-128 128 57.6 128 128-57.6 128-128 128z" fill="#ffffff" p-id="2486"></path><path d="M512 0C230.4 0 0 230.4 0 512s230.4 512 512 512c168 0 316.8-80 409.6-204.8C819.2 708.8 673.6 640 512 640c-139.2 0-265.6 49.6-363.2 134.4C96 699.2 64 609.6 64 512 64 265.6 265.6 64 512 64s448 201.6 448 448c0 56-11.2 112-30.4 164.8-6.4 16 1.6 35.2 17.6 41.6 16 6.4 35.2-1.6 41.6-17.6C1012.8 640 1024 576 1024 512 1024 230.4 793.6 0 512 0z m0 704c123.2 0 235.2 44.8 321.6 118.4C752 907.2 638.4 960 512 960c-126.4 0-240-52.8-321.6-137.6C276.8 748.8 388.8 704 512 704z" fill="#ffffff" p-id="2487"></path></svg>